<?xml version="1.0" encoding="UTF-8"?>
<svg id="Layer_2" data-name="Layer 2" xmlns="http://www.w3.org/2000/svg" viewBox="0 0 332.09 306.32">
  <defs>
    <style>
      .cls-1 {
        fill: #fff;
      }

      .cls-2 {
        fill: #14ef9b;
      }

      .cls-3 {
        fill: #8980ff;
      }
    </style>
  </defs>
  <g id="Layer_1-2" data-name="Layer 1">
    <g id="SHOWCASE">
      <g id="_1" data-name="1">
        <g id="vert">
          <g id="neg">
            <g>
              <path class="cls-2" d="M228.29,232.15c-.88.97-4.07,1.56-5.99,4.74-1.94,3.19-5.42,5.72-5.72,6.96-.29,1.26.22,4.08-.25,4.59-1.29,1.42-5.56.54-5.95,1.89s.2,5.13-1.25,5.81c-1.45.68-6.87,3.87-7.75,8.7-.86,4.84-.28,9-.86,10.44-.59,1.45-5.13,7.35-5.61,8.5-1,2.37.48,6.49-.29,7.55-.77,1.06-3,4.36-3.1,7.55-.09,3.19,2.94,7.33,1.32,7.43-1.66.11-2.88-2.5-6.93-7.81-4.07-5.31-8.43-13.45-9.2-16.05-.77-2.62-3.6-9.04-6.29-9.1-1.17-.02-4.99,14.03-7.46,13.94-4.3-.17-5.14-12.46-19.44-14.23-3.48-.42-18.15,10.27-24.37,10.55-13.48.6-27.59-2.54-33.27-2.9-5.14-.34-9,4.64-10.64,4.64-1.56,0-10.44,1.12-25.28-2.83-1.25-.32-1.49-1.99-.4-2.65,1.45-.86,3.77-1.96,7.5-3.13,1.83-.59,2.51-6.19,2.51-12.19s-1.26-27.96-.29-31.53c.97-3.57,1.4-6.12,2.71-8.32.62-1.05,5.31-4.65,4.07-10.74-1.26-6.1-12.29-30.38-15.87-33.86-3.59-3.48-9.87-9.18-10.17-11.12-.28-1.94-.09-8.9-.95-13.93-.88-5.04-5.33-26.02-7.36-30.58-2.02-4.54-5.02-10.92-12.37-16.73-7.36-5.81-17.22-21.47-18.67-35.4-.89-8.52-1.06-7.16.39-8.52,1.45-1.36,16.9-15.13,24.37-20.41,6.5-4.58,10.55-3.57,14.13-13.43C43.14,20.12,48.83,0,51.28,0c1.74,0,1.83,6.49,4.64,10.54,2.8,4.07,4.07,4.56,8.61,5.62s2.03,2.9,6.67,4.44c4.65,1.56,6.78,1.85,7.46,2.03.68.2,1.25.59,2.85,1.76,1.22.91,1.11,1.73,3.73,3.08,2.6,1.36,7.55,3,9.97,4.74,2.42,1.74,16.73,14.51,19.63,17.11,2.91,2.62,4.65,4.84,6.87,3.39,2.23-1.45,1.17-5.9,1.94-9.67.77-3.77,3.77-11.71,9.57-11.71s6.19,6.58,3.3,15.19c-2.9,8.61-5.99,8.7-7.73,11.23-1.74,2.51-5.13,8.41-6.1,8.8-.97.39-3.68.88-4.36,5.04-.68,4.16,1.65,6.47,1.94,9,.29,2.51-.2,7.06.68,7.06s3.39-4.16,4.45-4.16,1.93,1.65,2.9,1.65c.4,0,1.17-.48,2.11-1.03,1.31-.8,2.93-1.77,4.17-1.77s6.88,5.77,11.27,10.62c.74.81,1.13,1.87,1.13,2.97,0,0,0,.01,0,.02,0,6.03.83,11.87,2.39,17.41.08.3.13.6.15.91.16,3.21.28,6.19.25,7.55-.06,2.26-1.22,5-2.15,6.84-.7,1.39-.59,3.06.28,4.36s1.94,2.64,2.64,2.64c.51,0,1.35-.76,2.27-1.82,1.8-2.09,5.09-1.93,6.74.29,1.2,1.63,2.48,3.19,3.83,4.7,1.01,1.13,1.25,2.69.88,4.17-.15.58-.19,1.19-.12,1.81.22,1.93.63,4.37,1.29,5.27,1.17,1.56,6.3,1.85,7.75,2.91,1.45,1.06,2.8,1.63,3.57,1.63s1.56,1.36,1.56,2.33.11,1.8-.09,2.3c-.19.48-.49.8-.49,2.06,0,1.17,1.63,5.92.77,9.5-.05.22-.11.43-.18.65-1.96,5.63-11.33,24.38-14.63,30.91-.64,1.28-.59,2.77.07,4.03.41.79.74,1.76.62,2.69-.28,2.13-2.8,8.7.2,9.77,3,1.06,32.4,0,32.4,0,0,0,6.69.09,10.75,7.93,4.05,7.83,10.63,1.36,10.63,1.36,0,0,8.09-7.32,11.91-7.55,1.54-.09-1.06,10.64-1.94,11.6Z"/>
              <g>
                <path class="cls-1" d="M273.76,148.36c11.89-14.19,19.07-32.47,19.07-52.44,0-45.1-36.57-81.66-81.66-81.66-41.08,0-75.08,30.33-80.8,69.83-.57,3.85-.86,7.81-.86,11.83,0,33.46,20.13,62.23,48.96,74.84,10.01,4.39,21.07,6.82,32.7,6.82,16.65,0,32.13-4.99,45.06-13.54l59.25,59.25,16.61-16.61-58.32-58.32ZM211.18,160.15c-17.96,0-34.2-7.38-45.84-19.26-3.51-3.57-6.59-7.55-9.2-11.85-2.85-4.73-5.1-9.84-6.67-15.27-1.63-5.67-2.51-11.66-2.51-17.85,0-.57,0-1.14.02-1.71.91-34.68,29.3-62.51,64.21-62.51s64.22,28.74,64.22,64.22-28.76,64.22-64.22,64.22Z"/>
                <g>
                  <rect class="cls-3" x="165.27" y="94.97" width="23.99" height="25.63" rx="2.68" ry="2.68"/>
                  <rect class="cls-3" x="197.72" y="82.58" width="23.99" height="38.02" rx="2.68" ry="2.68"/>
                  <rect class="cls-3" x="230.16" y="63.11" width="23.99" height="57.49" rx="2.68" ry="2.68"/>
                </g>
              </g>
            </g>
          </g>
        </g>
      </g>
    </g>
  </g>
</svg>