<svg width="443" height="426" viewBox="0 0 443 426" fill="none" xmlns="http://www.w3.org/2000/svg">
<path d="M35.2631 210.576C34.4921 209.873 33.8847 209.01 33.4838 208.047C33.0829 207.084 32.8981 206.045 32.9426 205.003C32.987 203.961 33.2596 202.942 33.7411 202.016C34.2226 201.091 34.9012 200.282 35.7293 199.648L27.7351 175.589L40.4686 179.006L46.1079 201.329C47.0832 202.79 47.4883 204.557 47.2466 206.296C47.0048 208.035 46.133 209.625 44.7962 210.765C43.4595 211.905 41.7507 212.515 39.9936 212.48C38.2366 212.446 36.5535 211.768 35.2631 210.576Z" fill="#A0616A"/>
<path d="M58.3412 79.8592C60.454 81.0694 72.9547 78.0709 75.396 78.9239C74.0484 87.1392 81.368 84.0563 73.4195 94.8452C65.471 105.634 49.4618 137.982 45.825 150.072C42.1882 162.162 45.7878 179.2 45.2431 184.93C44.9799 188.249 44.9963 191.586 45.2922 194.903C40.9977 194.849 36.7648 195.739 32.4032 195.17C27.7519 182.02 24.6245 163.303 22.5009 152.958C20.3773 142.614 20.2996 146.988 21.2736 141.816C22.2476 136.643 22.4834 140.402 21.4602 135.454C20.4371 130.505 24.575 124.288 28.3982 120.743C30.0467 116.006 32.1771 111.589 33.809 106.901C45.7683 96.4774 46.5546 90.4562 58.3412 79.8592Z" fill="#14EF8C"/>
<path d="M405.805 414.907H395.239L390.213 374.189H405.807L405.805 414.907Z" fill="#FFB6B6"/>
<path d="M408.5 425.14L374.431 425.139V424.709C374.431 421.195 375.828 417.825 378.315 415.341C380.802 412.856 384.174 411.46 387.691 411.46L393.915 406.743L405.526 411.461L408.5 411.461L408.5 425.14Z" fill="#2F2E41"/>
<path d="M356.717 414.907H346.152L341.125 374.189H356.719L356.717 414.907Z" fill="#FFB6B6"/>
<path d="M359.412 425.14L325.343 425.139V424.709C325.343 421.195 326.74 417.825 329.227 415.341C331.714 412.856 335.087 411.46 338.604 411.46L344.828 406.743L356.439 411.461L359.413 411.461L359.412 425.14Z" fill="#2F2E41"/>
<path d="M352.144 192.298L420.87 194.014C433.922 201.097 434.12 216.428 429.844 234.63C429.844 234.63 431.288 245.448 428.4 248.333C425.513 251.218 424.069 251.218 425.513 256.267C426.956 261.315 419.328 269.561 420.255 270.487C421.181 271.413 423.347 276.461 423.347 276.461L416.128 317.572C416.128 317.572 411.075 388.974 409.631 390.416C408.187 391.859 406.744 390.416 408.187 394.023C409.631 397.629 411.075 396.186 409.631 397.629C408.352 399.006 407.147 400.451 406.022 401.956H388.569C388.569 401.956 387.253 394.744 387.253 394.023C387.253 393.301 385.809 388.974 385.809 388.253C385.809 387.531 387.085 386.256 387.085 386.256C387.526 384.79 387.824 383.285 387.975 381.762C387.975 380.319 392.306 324.784 392.306 324.784L383.644 252.66L362.709 323.341C362.709 323.341 362.709 385.368 361.265 386.81C359.822 388.253 359.822 387.531 360.544 390.416C361.265 393.301 364.153 392.58 361.987 394.744C359.822 396.907 359.1 393.301 359.822 396.907L360.544 400.514L338.887 400.823C338.887 400.823 336 394.744 337.443 392.58C338.887 390.416 338.801 391.007 337.039 387.466C335.278 383.925 334.556 383.204 335.278 382.483C336 381.761 336 377.925 336 377.925L339.609 308.917C339.609 308.917 340.331 236.072 340.331 233.908C340.385 232.795 340.18 231.684 339.731 230.664V227.727L342.497 217.32L352.144 192.298Z" fill="#2F2E41"/>
<path d="M393.429 49.5203C405.222 49.5203 414.782 39.9685 414.782 28.1858C414.782 16.4031 405.222 6.85127 393.429 6.85127C381.635 6.85127 372.075 16.4031 372.075 28.1858C372.075 39.9685 381.635 49.5203 393.429 49.5203Z" fill="#FFB6B6"/>
<path d="M382.752 63.6209C378.151 66.3534 375.4 71.3739 373.82 76.4828C370.895 85.9412 369.135 95.7204 368.577 105.604L366.909 135.195L346.244 198.201C364.154 213.342 431.472 201.642 431.472 201.642C431.472 201.642 433.539 200.954 431.472 198.889C429.406 196.825 427.394 198.654 429.46 196.589C431.527 194.525 430.102 196.825 429.414 194.76C428.725 192.695 429.414 194.072 430.102 193.384C430.791 192.695 424.77 186.501 424.77 186.501L430.28 150.335L437.169 77.385C428.903 67.0619 412.279 60.9764 412.279 60.9764L407.984 53.2517L386.507 54.9683L382.752 63.6209Z" fill="#3F3D56"/>
<path d="M379.823 15.6651C380.649 15.6715 381.472 15.7793 382.271 15.9861C383.848 16.3648 385.45 16.6332 387.064 16.7891C392.008 17.2537 396.653 19.36 400.257 22.7716C403.862 26.1832 406.218 30.7032 406.95 35.6098C408.191 34.529 411.014 32.5408 413.329 34.3886C413.364 34.4179 413.384 34.433 413.466 34.3944C415.003 33.6661 417.731 24.6999 417.814 16.8054C417.857 12.6153 417.197 7.26469 413.805 5.57029L413.626 5.48102L413.579 5.28696C413.353 4.34442 410.821 2.73552 406.421 1.48326C398.424 -0.792428 386.739 -1.12142 380.027 5.40265C379.519 7.60206 377.631 8.20473 375.961 8.73823C374.113 9.32875 372.516 9.83835 372.265 12.104C372.054 15.3281 372.07 18.5631 372.31 21.7851C372.937 19.8135 374.166 18.0878 375.826 16.8511C377.006 16.0574 378.401 15.6435 379.823 15.6651Z" fill="#2F2E41"/>
<path d="M340.078 133.547L374.959 111.229L357.391 87.8952L340.043 109.216L285.991 112.528C284.569 111.124 282.77 110.163 280.811 109.763C278.852 109.364 276.82 109.542 274.961 110.277C273.102 111.011 271.497 112.27 270.342 113.9C269.187 115.53 268.531 117.461 268.455 119.457C268.38 121.452 268.887 123.427 269.915 125.14C270.943 126.853 272.447 128.23 274.245 129.103C276.043 129.977 278.056 130.308 280.039 130.058C282.023 129.808 283.89 128.987 285.414 127.695L340.078 133.547Z" fill="#FFB6B6"/>
<path d="M407.333 80.0758C409.358 92.3167 371.127 115.692 371.127 115.692C371.127 112.818 348.309 134.509 347.279 132.126C344.352 125.354 342.293 109.313 338.203 106.746C335.864 105.277 352.291 91.4842 352.291 91.4842C352.291 91.4842 360.89 82.8292 372.174 71.9121C375.307 68.7666 379.186 66.4642 383.449 65.2192C387.712 63.9741 392.221 63.827 396.557 64.7915C396.557 64.7915 405.309 67.835 407.333 80.0758Z" fill="#3F3D56"/>
<path d="M368.466 220.622C368.482 233.721 366.286 246.73 361.972 259.1C361.774 259.675 361.568 260.241 361.362 260.816C352.531 284.778 336.105 305.201 314.585 318.975C313.116 319.92 311.63 320.821 310.118 321.696C292.925 331.654 273.462 337.039 253.591 337.335C252.938 337.343 252.285 337.352 251.633 337.352C250.791 337.352 249.957 337.343 249.124 337.326C229.226 336.931 209.763 331.44 192.597 321.379C191.085 320.495 189.596 319.576 188.13 318.624C164.238 303.149 146.817 279.498 139.135 252.105C131.453 224.712 134.038 195.46 146.405 169.836C146.68 169.261 146.963 168.694 147.255 168.119C156.995 148.807 171.911 132.577 190.34 121.237C208.769 109.897 229.988 103.892 251.633 103.892C273.277 103.892 294.496 109.897 312.925 121.237C331.354 132.577 346.27 148.807 356.01 168.119C356.302 168.694 356.585 169.261 356.86 169.836C364.525 185.669 368.494 203.034 368.466 220.622Z" fill="#D5D1FF"/>
<path d="M314.585 173.904V318.975C313.116 319.919 311.63 320.821 310.118 321.696V173.904H314.585Z" fill="#3F3D56"/>
<path d="M253.591 221.969V337.335C252.938 337.343 252.285 337.352 251.633 337.352C250.791 337.352 249.957 337.343 249.124 337.326V221.969H253.591Z" fill="#3F3D56"/>
<path d="M192.597 173.904V321.379C191.085 320.495 189.596 319.576 188.13 318.623V173.904H192.597Z" fill="#3F3D56"/>
<path d="M311.768 185.431C320.782 185.431 328.09 178.13 328.09 169.123C328.09 160.117 320.782 152.815 311.768 152.815C302.753 152.815 295.445 160.117 295.445 169.123C295.445 178.13 302.753 185.431 311.768 185.431Z" fill="#14EF8C"/>
<path d="M320.147 162.327C319.901 162.093 319.575 161.962 319.235 161.962C318.896 161.962 318.57 162.093 318.324 162.327C314.861 165.087 311.75 168.261 309.062 171.779C308.402 170.503 307.742 169.228 307.082 167.952C306.32 166.479 304.096 167.78 304.857 169.251C305.822 171.117 306.787 172.984 307.753 174.85C307.869 175.04 308.032 175.197 308.227 175.307C308.422 175.416 308.642 175.473 308.865 175.473C309.089 175.473 309.308 175.416 309.503 175.307C309.698 175.197 309.862 175.04 309.978 174.85C312.843 170.819 316.266 167.215 320.147 164.148C320.386 163.905 320.521 163.578 320.521 163.237C320.521 162.896 320.386 162.569 320.147 162.327Z" fill="white"/>
<path d="M251.632 233.496C260.647 233.496 267.955 226.195 267.955 217.189C267.955 208.182 260.647 200.881 251.632 200.881C242.618 200.881 235.31 208.182 235.31 217.189C235.31 226.195 242.618 233.496 251.632 233.496Z" fill="#14EF8C"/>
<path d="M260.011 210.392C259.766 210.158 259.44 210.027 259.1 210.027C258.761 210.027 258.435 210.158 258.189 210.392C254.726 213.152 251.615 216.326 248.927 219.844C248.267 218.569 247.607 217.293 246.947 216.017C246.185 214.544 243.96 215.845 244.722 217.317C245.687 219.183 246.652 221.049 247.617 222.915C247.734 223.105 247.897 223.263 248.092 223.372C248.287 223.481 248.507 223.539 248.73 223.539C248.953 223.539 249.173 223.481 249.368 223.372C249.563 223.263 249.726 223.105 249.843 222.915C252.707 218.884 256.131 215.28 260.011 212.213C260.251 211.97 260.386 211.643 260.386 211.302C260.386 210.962 260.251 210.634 260.011 210.392Z" fill="white"/>
<path d="M190.638 188.864C199.653 188.864 206.961 181.563 206.961 172.557C206.961 163.55 199.653 156.249 190.638 156.249C181.624 156.249 174.316 163.55 174.316 172.557C174.316 181.563 181.624 188.864 190.638 188.864Z" fill="#14EF8C"/>
<path d="M199.017 165.76C198.772 165.526 198.445 165.395 198.106 165.395C197.767 165.395 197.44 165.526 197.195 165.76C193.731 168.52 190.621 171.694 187.933 175.212C187.273 173.937 186.613 172.661 185.953 171.385C185.191 169.912 182.966 171.213 183.727 172.685C184.693 174.551 185.658 176.417 186.623 178.283C186.74 178.473 186.903 178.631 187.098 178.74C187.293 178.849 187.512 178.906 187.736 178.906C187.959 178.906 188.179 178.849 188.374 178.74C188.569 178.631 188.732 178.473 188.849 178.283C191.713 174.252 195.137 170.648 199.017 167.581C199.257 167.338 199.392 167.011 199.392 166.67C199.392 166.33 199.257 166.002 199.017 165.76Z" fill="white"/>
<path d="M424.716 160.959L435.462 120.992L406.747 115.561L408.291 142.995L370.563 181.808C368.565 181.726 366.587 182.227 364.87 183.249C363.153 184.271 361.77 185.771 360.891 187.564C360.012 189.358 359.674 191.369 359.918 193.351C360.163 195.333 360.98 197.201 362.269 198.728C363.558 200.255 365.263 201.373 367.178 201.948C369.092 202.523 371.133 202.529 373.05 201.965C374.968 201.401 376.68 200.292 377.978 198.772C379.276 197.253 380.103 195.39 380.359 193.409L424.716 160.959Z" fill="#FFB6B6"/>
<path d="M438.4 76.1801C448.147 83.8678 435.637 126.869 435.637 126.869C433.7 124.746 431.449 156.133 429.082 155.064C422.353 152.027 410.021 141.552 405.266 142.406C402.547 142.894 405.396 121.645 405.396 121.645C405.396 121.645 405.92 109.461 406.905 93.7987C407.101 89.3654 408.416 85.0538 410.729 81.2653C413.042 77.4767 416.276 74.3343 420.131 72.1306C420.131 72.1306 428.653 68.4923 438.4 76.1801Z" fill="#3F3D56"/>
<path d="M101.752 165.912L113.566 218.583L37.8657 213.878L58.4508 162.15L101.752 165.912Z" fill="#A0616A"/>
<path d="M89.1472 409.009L97.6503 409.008L101.696 376.239H89.1455L89.1472 409.009Z" fill="#A0616A"/>
<path d="M86.2672 404.818L99.7094 404.016V409.77L112.489 418.588C113.12 419.024 113.596 419.65 113.846 420.374C114.096 421.099 114.108 421.884 113.88 422.616C113.651 423.347 113.195 423.987 112.577 424.441C111.959 424.895 111.212 425.14 110.445 425.14H94.4416L91.6832 419.449L90.6062 425.14H84.5723L86.2672 404.818Z" fill="#2F2E41"/>
<path d="M8.77734 404.782L17.088 406.582L27.9948 375.415L15.7298 372.756L8.77734 404.782Z" fill="#A0616A"/>
<path d="M6.85306 400.076L20.1598 402.14L18.9388 407.763L29.5569 419.088C30.0814 419.647 30.4133 420.36 30.504 421.121C30.5947 421.882 30.4396 422.652 30.0612 423.318C29.6829 423.985 29.1011 424.514 28.4009 424.827C27.7006 425.14 26.9186 425.221 26.1689 425.058L10.5293 421.668L9.04133 415.522L6.78104 420.856L0.884277 419.578L6.85306 400.076Z" fill="#2F2E41"/>
<path d="M115.498 262.627C109.53 295.396 108.039 309.544 108.039 309.544C108.039 309.544 112.514 314.757 109.531 317.738C106.547 320.72 109.531 326.674 109.531 326.674L102.821 398.915L97.4199 398.04L84.4091 395.95L79.7166 395.192L82.7005 327.423C82.7005 327.423 79.7166 321.461 81.2086 319.97C82.7005 318.48 79.7166 309.544 79.7166 309.544L75.9909 238.794L52.8783 316.248C52.8783 316.248 55.1203 319.229 52.8783 321.461C50.6445 323.693 46.177 334.868 46.177 334.868L32.4327 382.918L31.2658 386.998L24.0979 385.657L16.2964 384.192L14.8628 383.925L12.3123 383.442L10.6704 383.134L10.1119 383.034L7.41138 382.526L8.22824 378.904L8.65327 376.997L20.2805 325.4L20.5472 324.209L20.8306 322.952C20.8306 322.952 19.3386 319.229 21.5724 316.989C22.2259 316.306 22.7032 315.475 22.9631 314.567C23.2231 313.659 23.2578 312.701 23.0644 311.776C22.9912 311.698 22.9243 311.615 22.8643 311.526C22.6005 311.164 22.4185 310.749 22.3309 310.31C22.1308 309.378 22.3059 308.07 23.8145 306.563C24.2393 306.112 24.5959 305.601 24.873 305.047C27.1401 300.759 28.282 291.674 28.282 291.674C28.282 291.674 30.2991 219.716 36.9003 208.724C37.2504 208.149 44.2581 197.118 44.6249 196.893C52.0763 192.43 110.129 198.595 110.129 198.595C110.129 198.595 113.646 208.032 113.804 209.015C114.663 214.536 120.558 234.83 115.498 262.627Z" fill="#2F2E41"/>
<path d="M97.8586 89.3006C97.8586 89.3006 99.1147 82.7859 87.0442 70.7262C80.654 68.598 69.5819 69.8384 65.7434 70.7262C47.9927 94.1363 51.1709 90.0057 46.5504 103.086C45.3522 106.477 44.7531 109.736 45.2856 112.396C47.4157 123.037 50.8739 177.66 50.1638 180.498C49.4538 183.335 44.4836 186.882 49.4538 186.882C54.424 186.882 118.519 185.761 117.099 183.633C115.679 181.505 97.8586 89.3006 97.8586 89.3006Z" fill="#14EF8C"/>
<path d="M173.981 175.857C173.007 176.234 171.963 176.392 170.922 176.322C169.88 176.252 168.867 175.954 167.953 175.451C167.039 174.947 166.247 174.249 165.632 173.406C165.018 172.563 164.595 171.596 164.395 170.572L139.275 167.007L148.009 157.139L170.525 162.037C172.268 161.816 174.033 162.24 175.483 163.231C176.934 164.222 177.971 165.71 178.397 167.414C178.823 169.117 178.608 170.917 177.795 172.474C176.981 174.03 175.624 175.234 173.981 175.857Z" fill="#A0616A"/>
<path d="M67.7017 85.1072C69.7272 83.7563 72.0277 83.1218 73.8795 81.3179C80.6412 86.1826 81.1388 78.2619 87.2666 90.1775C93.3945 102.093 115.252 130.822 124.466 139.46C133.68 148.098 150.551 152.467 155.443 155.507C158.301 157.221 161.298 158.692 164.403 159.905C162.441 163.722 161.354 167.905 158.901 171.553C145.046 169.857 126.88 164.318 116.664 161.61C106.448 158.902 110.333 160.92 106.132 157.745C101.931 154.57 105.404 156.033 100.514 154.744C95.6236 153.455 91.8951 146.984 90.4212 141.985C86.9103 138.401 83.9011 134.528 80.4272 130.98C76.4133 115.639 71.948 100.371 67.7017 85.1072Z" fill="#14EF8C"/>
<path d="M83.5639 61.6466C94.9189 61.6466 104.124 52.4497 104.124 41.1049C104.124 29.76 94.9189 20.5632 83.5639 20.5632C72.2089 20.5632 63.0039 29.76 63.0039 41.1049C63.0039 52.4497 72.2089 61.6466 83.5639 61.6466Z" fill="#A0616A"/>
<path d="M97.3005 78.6541C96.3258 77.2636 89.0398 63.4763 86.874 58.2624C86.6513 59.3915 86.5107 60.5352 86.4534 61.6846L86.4318 62.1129L86.0061 62.168C85.3659 62.2496 70.2443 64.0834 62.3747 55.1679C57.7122 49.8869 56.6549 41.9657 59.2278 31.6196C58.7598 31.5278 58.3114 31.3553 57.9027 31.1097C57.2222 30.6391 56.6526 30.0259 56.2337 29.3128C55.8148 28.5997 55.5566 27.8038 55.4772 26.9808L55.0415 27.0975C41.041 20.2909 53.1027 0.379071 65.8907 10.2788C67.0123 10.0284 68.1816 10.0955 69.2672 10.4727C70.3142 10.8982 71.2264 11.5989 71.9072 12.5004C72.588 13.4019 73.0119 14.4706 73.1341 15.5933C79.7413 12.1211 88.4858 12.6861 93.0084 15.2913C94.902 16.3822 95.9894 17.7562 96.1825 19.289C101.524 19.587 107.27 24.7858 107.27 32.1516V32.6645H106.756C104.607 32.7102 102.511 33.3391 100.692 34.4837C98.8735 35.6284 97.4005 37.2458 96.4312 39.1627C95.1175 41.5339 94.4673 44.2149 94.549 46.9239C94.6307 49.6329 95.4412 52.2699 96.8954 54.5578C98.4781 56.9846 99.5588 59.7032 100.074 62.5537C100.589 65.4041 100.527 68.3287 99.8934 71.1551L97.9643 79.6008L97.3005 78.6541Z" fill="#2F2E41"/>
</svg>
