<svg width="209" height="32" viewBox="0 0 209 32" fill="none" xmlns="http://www.w3.org/2000/svg">
<g clip-path="url(#clip0_6_3)">
<path d="M56.696 31.5169C54.0506 31.5169 51.7254 30.9215 49.7185 29.7263C47.7136 28.5333 46.1642 26.7656 45.0744 24.4232C43.9846 22.0808 43.4397 19.1929 43.4397 15.7574C43.4397 12.3219 43.9846 9.43614 45.0744 7.09168C46.1642 4.7493 47.7115 2.98159 49.7185 1.78853C51.7233 0.595484 54.0506 -0.00208282 56.696 -0.00208282C59.3414 -0.00208282 61.702 0.595484 63.6944 1.78853C65.6847 2.98159 67.2258 4.7493 68.3156 7.09168C69.4053 9.43405 69.9502 12.324 69.9502 15.7574C69.9502 19.1908 69.4053 22.0808 68.3156 24.4232C67.2258 26.7656 65.6847 28.5333 63.6944 29.7263C61.702 30.9194 59.3706 31.5169 56.696 31.5169ZM56.696 26.4095C58.1789 26.4095 59.4496 26.0764 60.5103 25.4059C61.5709 24.7376 62.3924 23.784 62.9748 22.5472C63.555 21.3104 63.8462 19.8342 63.8462 18.1165V13.4026C63.8462 11.6557 63.555 10.1732 62.9748 8.94892C62.3924 7.72672 61.5709 6.78144 60.5103 6.111C59.4496 5.44264 58.1768 5.10742 56.696 5.10742C55.2152 5.10742 54.0215 5.44264 52.9462 6.111C51.871 6.78144 51.0349 7.72672 50.4401 8.94892C49.8432 10.1711 49.5458 11.6557 49.5458 13.4026V18.1165C49.5458 19.8342 49.8432 21.3104 50.4401 22.5472C51.0349 23.784 51.871 24.7376 52.9462 25.4059C54.0215 26.0764 55.2714 26.4095 56.696 26.4095Z" fill="white"/>
<path d="M95.373 5.63212H86.6963V30.9943H80.9417V5.63212H72.3087V0.524693H95.3751V5.63212H95.373Z" fill="white"/>
<path d="M112.377 30.9943H98.5551V26.3679H102.567V5.15115H98.5551V0.524693H112.377V5.15115H108.322V26.3658H112.377V30.9923V30.9943Z" fill="white"/>
<path d="M118.263 30.9943V0.524693H132.347C134.847 0.524693 136.816 1.23886 138.255 2.66302C139.695 4.08927 140.414 5.97983 140.414 8.33886C140.414 9.88171 140.152 11.1185 139.63 12.0492C139.106 12.982 138.43 13.6649 137.602 14.1001C136.775 14.5352 135.895 14.7976 134.965 14.885V15.1474C135.633 15.1474 136.346 15.2785 137.101 15.5409C137.856 15.8032 138.576 16.2113 139.26 16.7631C139.942 17.3169 140.495 18.0436 140.917 18.9451C141.338 19.8467 141.55 20.9523 141.55 22.262C141.55 23.8922 141.209 25.3622 140.524 26.6719C139.84 27.9815 138.91 29.0288 137.733 29.8138C136.556 30.5987 135.211 30.9923 133.701 30.9923H118.265L118.263 30.9943ZM124.019 5.41349V13.2277H131.126C131.823 13.2277 132.42 13.0965 132.915 12.8341C133.41 12.5718 133.786 12.2012 134.048 11.7202C134.31 11.2392 134.441 10.6667 134.441 9.99623V8.64285C134.441 7.97449 134.31 7.3915 134.048 6.89596C133.786 6.40042 133.407 6.0298 132.915 5.78203C132.42 5.53426 131.825 5.41141 131.126 5.41141H124.019V5.41349ZM124.019 17.9416V26.1055H132.043C132.769 26.1055 133.395 25.9744 133.919 25.712C134.443 25.4497 134.842 25.0728 135.117 24.5773C135.394 24.0817 135.531 23.4862 135.531 22.7866V21.3021C135.531 20.5754 135.392 19.9633 135.117 19.4678C134.84 18.9722 134.441 18.5954 133.919 18.333C133.395 18.0707 132.771 17.9395 132.043 17.9395H124.019V17.9416Z" fill="white"/>
<path d="M159.346 4.61396C159.346 5.32188 159.219 5.93402 158.963 6.4483C158.708 6.96467 158.358 7.36235 157.913 7.64135C157.468 7.92036 156.961 8.05986 156.389 8.05986C155.817 8.05986 155.309 7.92036 154.864 7.64135C154.419 7.36235 154.07 6.96467 153.814 6.4483C153.558 5.93194 153.431 5.32188 153.431 4.61396C153.431 3.90604 153.558 3.2939 153.814 2.77962C154.07 2.26326 154.419 1.86765 154.864 1.58657C155.309 1.30757 155.817 1.16806 156.389 1.16806C156.961 1.16806 157.468 1.30757 157.913 1.58657C158.358 1.86557 158.708 2.26326 158.963 2.77962C159.219 3.29598 159.346 3.90604 159.346 4.61396ZM158.56 4.61396C158.56 4.03305 158.464 3.54167 158.271 3.14191C158.077 2.74214 157.817 2.44024 157.489 2.23411C157.16 2.02798 156.794 1.92595 156.389 1.92595C155.983 1.92595 155.615 2.02798 155.286 2.23411C154.958 2.44024 154.698 2.74214 154.504 3.14191C154.311 3.54167 154.215 4.03097 154.215 4.61396C154.215 5.19695 154.311 5.68625 154.504 6.08602C154.698 6.48578 154.958 6.78769 155.286 6.99382C155.615 7.19995 155.981 7.30197 156.389 7.30197C156.796 7.30197 157.162 7.19995 157.489 6.99382C157.815 6.78769 158.077 6.48578 158.271 6.08602C158.464 5.68625 158.56 5.19695 158.56 4.61396Z" fill="white"/>
<path d="M160.708 7.96825V1.25968H161.48V3.73739H161.546C161.603 3.64994 161.682 3.53751 161.784 3.40217C161.885 3.26475 162.031 3.14399 162.222 3.03572C162.414 2.92745 162.672 2.87332 163 2.87332C163.424 2.87332 163.797 2.9795 164.119 3.19188C164.441 3.40425 164.693 3.70408 164.876 4.09343C165.057 4.48279 165.149 4.94085 165.149 5.46971C165.149 5.99857 165.057 6.46496 164.876 6.85432C164.695 7.24367 164.444 7.54558 164.123 7.75795C163.803 7.97033 163.433 8.07652 163.015 8.07652C162.692 8.07652 162.432 8.02238 162.239 7.91411C162.046 7.80584 161.896 7.683 161.79 7.5435C161.684 7.40399 161.605 7.28948 161.549 7.19787H161.457V7.97033H160.71L160.708 7.96825ZM161.467 5.45305C161.467 5.83408 161.524 6.16722 161.634 6.45663C161.746 6.74605 161.908 6.973 162.12 7.1354C162.335 7.29781 162.597 7.37901 162.907 7.37901C163.216 7.37901 163.499 7.29364 163.716 7.12083C163.932 6.95009 164.096 6.7169 164.206 6.4254C164.317 6.13391 164.371 5.8091 164.371 5.45097C164.371 5.09285 164.317 4.77845 164.209 4.4932C164.1 4.20795 163.938 3.981 163.722 3.81443C163.506 3.64786 163.233 3.56458 162.905 3.56458C162.576 3.56458 162.326 3.6437 162.112 3.80194C161.898 3.96018 161.738 4.18088 161.628 4.46405C161.517 4.74722 161.463 5.07619 161.463 5.45097L161.467 5.45305Z" fill="white"/>
<path d="M169.884 4.06429L169.189 4.26C169.146 4.14341 169.081 4.03097 168.998 3.92062C168.915 3.81027 168.801 3.71866 168.657 3.64786C168.514 3.57499 168.328 3.53959 168.104 3.53959C167.796 3.53959 167.54 3.61039 167.336 3.75197C167.133 3.89355 167.031 4.07053 167.031 4.28707C167.031 4.47863 167.101 4.63062 167.241 4.74305C167.38 4.85549 167.598 4.9471 167.896 5.02206L168.643 5.20528C169.092 5.31355 169.427 5.48012 169.647 5.70499C169.867 5.92986 169.978 6.21719 169.978 6.56907C169.978 6.8564 169.895 7.11458 169.73 7.34153C169.566 7.56848 169.335 7.74754 169.042 7.87872C168.747 8.00989 168.405 8.07444 168.014 8.07444C167.501 8.07444 167.076 7.962 166.742 7.73922C166.407 7.51643 166.193 7.19162 166.103 6.7627L166.837 6.57948C166.906 6.85015 167.039 7.0542 167.235 7.18954C167.43 7.32487 167.686 7.39358 168.002 7.39358C168.362 7.39358 168.649 7.31655 168.861 7.16247C169.073 7.00839 169.179 6.82309 169.179 6.60655C169.179 6.43165 169.119 6.2859 168.996 6.16514C168.873 6.04646 168.686 5.95693 168.432 5.89863L167.594 5.70291C167.135 5.59464 166.796 5.42391 166.581 5.19279C166.367 4.96168 166.259 4.67435 166.259 4.32663C166.259 4.04346 166.34 3.79153 166.5 3.57291C166.661 3.35429 166.881 3.18355 167.158 3.05863C167.436 2.9337 167.752 2.87123 168.106 2.87123C168.603 2.87123 168.994 2.9795 169.279 3.19813C169.564 3.41675 169.766 3.70408 169.886 4.0622L169.884 4.06429Z" fill="white"/>
<path d="M173.249 8.07444C172.765 8.07444 172.349 7.96617 171.997 7.75171C171.648 7.53725 171.377 7.23534 171.188 6.84807C170.999 6.4608 170.905 6.00898 170.905 5.49262C170.905 4.97625 170.999 4.52235 171.188 4.12883C171.377 3.73531 171.642 3.42716 171.981 3.20437C172.32 2.98367 172.717 2.87123 173.17 2.87123C173.432 2.87123 173.69 2.91496 173.946 3.00241C174.202 3.08986 174.433 3.23144 174.643 3.42716C174.853 3.62288 175.019 3.88106 175.144 4.20171C175.269 4.52235 175.331 4.91795 175.331 5.38851V5.7154H171.456V5.04704H174.547C174.547 4.76388 174.491 4.50986 174.379 4.28707C174.266 4.06429 174.106 3.88731 173.9 3.7603C173.694 3.63329 173.451 3.56666 173.172 3.56666C172.864 3.56666 172.598 3.6437 172.376 3.79361C172.151 3.94561 171.981 4.14341 171.86 4.38493C171.739 4.62646 171.679 4.88672 171.679 5.16572V5.6113C171.679 5.99232 171.746 6.31297 171.877 6.57531C172.008 6.83766 172.193 7.03754 172.428 7.17496C172.663 7.31238 172.937 7.37901 173.249 7.37901C173.453 7.37901 173.636 7.34986 173.8 7.29156C173.965 7.23326 174.108 7.14581 174.227 7.02921C174.347 6.91262 174.439 6.76687 174.505 6.59197L175.252 6.80226C175.173 7.05628 175.042 7.27907 174.857 7.46854C174.672 7.65801 174.443 7.80793 174.171 7.91411C173.898 8.0203 173.59 8.07235 173.251 8.07235L173.249 8.07444Z" fill="white"/>
<path d="M176.508 7.96825V2.93578H177.255V3.69575H177.307C177.398 3.4459 177.565 3.24393 177.804 3.08986C178.043 2.93578 178.315 2.85666 178.615 2.85666C178.671 2.85666 178.742 2.85666 178.827 2.86082C178.912 2.86499 178.977 2.86707 179.02 2.87123V3.65827C178.995 3.65203 178.935 3.64162 178.842 3.62704C178.748 3.61247 178.65 3.60622 178.548 3.60622C178.305 3.60622 178.087 3.65619 177.895 3.75821C177.704 3.86024 177.554 3.99974 177.444 4.17672C177.334 4.3537 177.28 4.55775 177.28 4.7847V7.97033H176.508V7.96825Z" fill="white"/>
<path d="M184.205 2.93578L182.346 7.96825H181.56L179.701 2.93578H180.539L181.926 6.94593H181.978L183.365 2.93578H184.203H184.205Z" fill="white"/>
<path d="M186.549 8.08693C186.231 8.08693 185.942 8.02655 185.682 7.90578C185.422 7.78502 185.216 7.60804 185.064 7.37901C184.912 7.14789 184.835 6.86889 184.835 6.542C184.835 6.25467 184.892 6.01939 185.006 5.83825C185.12 5.6571 185.272 5.5176 185.461 5.41349C185.651 5.31147 185.861 5.23443 186.092 5.18238C186.322 5.13033 186.553 5.09077 186.786 5.05954C187.092 5.01997 187.339 4.99083 187.531 4.97C187.722 4.94918 187.861 4.91379 187.949 4.86382C188.036 4.81385 188.082 4.7264 188.082 4.60147V4.5744C188.082 4.25168 187.995 3.99974 187.818 3.82068C187.643 3.64162 187.377 3.55209 187.021 3.55209C186.666 3.55209 186.364 3.63329 186.154 3.79361C185.944 3.95602 185.796 4.12883 185.713 4.31206L184.979 4.04971C185.11 3.74364 185.285 3.50628 185.505 3.33346C185.724 3.16273 185.965 3.04197 186.225 2.97326C186.485 2.90455 186.743 2.86915 186.996 2.86915C187.159 2.86915 187.344 2.88789 187.554 2.92745C187.764 2.96493 187.968 3.04405 188.165 3.16065C188.363 3.27933 188.527 3.45631 188.658 3.69575C188.789 3.93519 188.854 4.25168 188.854 4.65144V7.96825H188.082V7.2874H188.042C187.99 7.39775 187.903 7.51435 187.78 7.63719C187.658 7.76212 187.495 7.86831 187.294 7.95575C187.09 8.0432 186.842 8.08693 186.551 8.08693H186.549ZM186.668 7.3915C186.973 7.3915 187.231 7.33112 187.441 7.21036C187.651 7.0896 187.812 6.93552 187.92 6.74397C188.028 6.55449 188.082 6.35461 188.082 6.14432V5.4364C188.049 5.47596 187.978 5.51135 187.868 5.54259C187.757 5.57382 187.631 5.60088 187.487 5.62379C187.344 5.64669 187.206 5.66751 187.071 5.68209C186.936 5.69874 186.828 5.71124 186.745 5.72373C186.545 5.7508 186.358 5.79244 186.183 5.85074C186.011 5.90904 185.869 5.9944 185.765 6.10892C185.661 6.22344 185.607 6.3796 185.607 6.57531C185.607 6.84391 185.707 7.04587 185.907 7.18329C186.106 7.32071 186.36 7.38734 186.668 7.38734V7.3915Z" fill="white"/>
<path d="M192.454 2.93578V3.59165H189.848V2.93578H192.454ZM190.609 1.73024H191.38V6.52743C191.38 6.74605 191.412 6.90845 191.476 7.01672C191.541 7.12499 191.624 7.19787 191.726 7.23326C191.828 7.26866 191.934 7.2874 192.048 7.2874C192.133 7.2874 192.204 7.28323 192.258 7.27282C192.312 7.26241 192.356 7.25408 192.389 7.24784L192.545 7.94326C192.493 7.962 192.42 7.98282 192.327 8.00364C192.233 8.02446 192.115 8.03487 191.969 8.03487C191.751 8.03487 191.538 7.98699 191.328 7.89329C191.12 7.7996 190.948 7.65593 190.811 7.46438C190.673 7.27282 190.607 7.02921 190.607 6.73772V1.73024H190.609Z" fill="white"/>
<path d="M195.609 8.07443C195.155 8.07443 194.758 7.96617 194.415 7.74963C194.074 7.53309 193.808 7.23118 193.616 6.84182C193.425 6.45247 193.329 5.99857 193.329 5.47804C193.329 4.95751 193.425 4.49528 193.616 4.10593C193.808 3.71657 194.074 3.4105 194.415 3.19396C194.756 2.97742 195.153 2.86915 195.609 2.86915C196.064 2.86915 196.459 2.97742 196.802 3.19396C197.143 3.4105 197.41 3.71449 197.601 4.10593C197.792 4.49736 197.888 4.95543 197.888 5.47804C197.888 6.00065 197.792 6.45247 197.601 6.84182C197.41 7.23118 197.143 7.53309 196.802 7.74963C196.461 7.96617 196.064 8.07443 195.609 8.07443ZM195.609 7.37901C195.954 7.37901 196.237 7.29156 196.459 7.11458C196.682 6.9376 196.846 6.7044 196.954 6.41707C197.06 6.12974 197.114 5.81742 197.114 5.48012C197.114 5.14282 197.06 4.8305 196.954 4.53901C196.848 4.24959 196.682 4.01431 196.459 3.83525C196.237 3.65619 195.954 3.56666 195.609 3.56666C195.263 3.56666 194.98 3.65619 194.758 3.83525C194.535 4.01431 194.371 4.24959 194.263 4.53901C194.157 4.8305 194.103 5.14282 194.103 5.48012C194.103 5.81742 194.157 6.12974 194.263 6.41707C194.369 6.7044 194.535 6.9376 194.758 7.11458C194.98 7.29156 195.263 7.37901 195.609 7.37901ZM195.255 2.25493L196.054 0.734985H196.956L195.935 2.25493H195.255Z" fill="white"/>
<path d="M199.065 7.96825V2.93578H199.812V3.69575H199.864C199.955 3.4459 200.122 3.24393 200.361 3.08986C200.6 2.93578 200.872 2.85666 201.172 2.85666C201.228 2.85666 201.299 2.85666 201.384 2.86082C201.469 2.86499 201.534 2.86707 201.577 2.87123V3.65827C201.552 3.65203 201.492 3.64162 201.399 3.62704C201.305 3.61247 201.207 3.60622 201.105 3.60622C200.862 3.60622 200.644 3.65619 200.452 3.75821C200.261 3.86024 200.111 3.99974 200.001 4.17672C199.891 4.3537 199.837 4.55775 199.837 4.7847V7.97033H199.065V7.96825Z" fill="white"/>
<path d="M202.888 2.09669C202.738 2.09669 202.609 2.04463 202.501 1.94261C202.393 1.84059 202.339 1.71566 202.339 1.57199C202.339 1.42833 202.393 1.3034 202.501 1.20138C202.609 1.09936 202.738 1.0473 202.888 1.0473C203.037 1.0473 203.168 1.09936 203.277 1.20138C203.385 1.3034 203.439 1.42833 203.439 1.57199C203.439 1.71566 203.385 1.84059 203.277 1.94261C203.168 2.04463 203.039 2.09669 202.888 2.09669ZM202.495 7.96825V2.93578H203.266V7.96825H202.495Z" fill="white"/>
<path d="M206.723 8.07444C206.269 8.07444 205.872 7.96617 205.529 7.74963C205.188 7.53309 204.922 7.23118 204.73 6.84182C204.539 6.45247 204.443 5.99857 204.443 5.47804C204.443 4.95751 204.539 4.49528 204.73 4.10593C204.922 3.71657 205.188 3.4105 205.529 3.19396C205.87 2.97742 206.267 2.86915 206.723 2.86915C207.178 2.86915 207.573 2.97742 207.916 3.19396C208.258 3.4105 208.524 3.71449 208.715 4.10593C208.906 4.49736 209.002 4.95543 209.002 5.47804C209.002 6.00065 208.906 6.45247 208.715 6.84182C208.524 7.23118 208.258 7.53309 207.916 7.74963C207.575 7.96617 207.178 8.07444 206.723 8.07444ZM206.723 7.37901C207.068 7.37901 207.351 7.29156 207.573 7.11458C207.796 6.9376 207.96 6.70441 208.068 6.41707C208.174 6.12974 208.228 5.81742 208.228 5.48012C208.228 5.14282 208.174 4.8305 208.068 4.53901C207.962 4.24959 207.796 4.01431 207.573 3.83525C207.351 3.65619 207.068 3.56666 206.723 3.56666C206.377 3.56666 206.095 3.65619 205.872 3.83525C205.65 4.01431 205.485 4.24959 205.377 4.53901C205.271 4.8305 205.217 5.14282 205.217 5.48012C205.217 5.81742 205.271 6.12974 205.377 6.41707C205.483 6.70441 205.65 6.9376 205.872 7.11458C206.095 7.29156 206.377 7.37901 206.723 7.37901Z" fill="white"/>
<path d="M155.484 19.1471C155.066 19.1471 154.696 19.0409 154.375 18.8286C154.055 18.6162 153.804 18.3143 153.623 17.9249C153.442 17.5356 153.35 17.0733 153.35 16.5403C153.35 16.0073 153.442 15.5534 153.623 15.164C153.804 14.7747 154.055 14.4749 154.378 14.2625C154.7 14.0501 155.074 13.9439 155.496 13.9439C155.823 13.9439 156.083 13.998 156.274 14.1063C156.466 14.2146 156.611 14.3374 156.713 14.4728C156.815 14.6102 156.894 14.7205 156.95 14.808H157.015V12.3303H157.786V19.0409H157.04V18.2685H156.948C156.892 18.3601 156.811 18.4746 156.707 18.6141C156.603 18.7536 156.453 18.8764 156.258 18.9847C156.062 19.093 155.804 19.1471 155.482 19.1471H155.484ZM155.59 18.4517C155.9 18.4517 156.162 18.3705 156.376 18.2081C156.59 18.0457 156.753 17.8187 156.863 17.5293C156.975 17.2399 157.029 16.9047 157.029 16.5257C157.029 16.1468 156.975 15.8199 156.865 15.5388C156.755 15.2577 156.595 15.0349 156.38 14.8767C156.166 14.7185 155.902 14.6393 155.588 14.6393C155.274 14.6393 154.989 14.7226 154.771 14.8892C154.552 15.0558 154.39 15.2827 154.284 15.568C154.178 15.8532 154.122 16.1718 154.122 16.5257C154.122 16.8797 154.178 17.2087 154.286 17.5002C154.396 17.7917 154.561 18.0228 154.777 18.1956C154.993 18.3663 155.264 18.4538 155.588 18.4538L155.59 18.4517Z" fill="white"/>
<path d="M161.415 19.1471C160.931 19.1471 160.515 19.0388 160.163 18.8244C159.814 18.6099 159.544 18.308 159.354 17.9207C159.165 17.5335 159.072 17.0817 159.072 16.5653C159.072 16.0489 159.165 15.595 159.354 15.2015C159.544 14.808 159.808 14.4998 160.147 14.277C160.486 14.0563 160.883 13.9439 161.336 13.9439C161.598 13.9439 161.856 13.9876 162.112 14.0751C162.368 14.1625 162.599 14.3041 162.809 14.4998C163.019 14.6956 163.185 14.9537 163.31 15.2744C163.435 15.595 163.497 15.9906 163.497 16.4612V16.7881H159.623V16.1197H162.713C162.713 15.8365 162.657 15.5825 162.545 15.3597C162.432 15.137 162.272 14.96 162.066 14.833C161.86 14.706 161.617 14.6393 161.338 14.6393C161.031 14.6393 160.764 14.7164 160.542 14.8663C160.317 15.0183 160.147 15.2161 160.026 15.4576C159.906 15.6991 159.845 15.9594 159.845 16.2384V16.684C159.845 17.065 159.912 17.3856 160.043 17.648C160.174 17.9103 160.359 18.1102 160.594 18.2476C160.829 18.3851 161.103 18.4517 161.415 18.4517C161.619 18.4517 161.802 18.4225 161.967 18.3642C162.131 18.3059 162.274 18.2185 162.393 18.1019C162.514 17.9853 162.605 17.8395 162.672 17.6646L163.418 17.8749C163.339 18.129 163.208 18.3517 163.023 18.5412C162.838 18.7307 162.609 18.8806 162.337 18.9868C162.064 19.093 161.756 19.145 161.417 19.145L161.415 19.1471Z" fill="white"/>
<path d="M167.004 13.0507V12.3303H172.03V13.0507H169.924V19.0409H169.113V13.0507H167.006H167.004Z" fill="white"/>
<path d="M175.67 16.9838V14.0085H176.442V19.0409H175.67V18.1893H175.618C175.499 18.4454 175.316 18.662 175.069 18.839C174.819 19.018 174.505 19.1055 174.127 19.1055C173.813 19.1055 173.534 19.0368 173.289 18.8973C173.043 18.7578 172.852 18.5495 172.713 18.2685C172.573 17.9874 172.503 17.6334 172.503 17.2045V14.0064H173.274V17.1525C173.274 17.5189 173.378 17.8125 173.584 18.0311C173.79 18.2497 174.054 18.358 174.374 18.358C174.566 18.358 174.763 18.308 174.963 18.2102C175.163 18.1123 175.331 17.9603 175.466 17.7583C175.601 17.5564 175.67 17.2961 175.67 16.9817V16.9838Z" fill="white"/>
<path d="M177.858 19.0409V14.0085H178.605V14.7684H178.657C178.748 14.5186 178.914 14.3166 179.154 14.1625C179.393 14.0085 179.665 13.9293 179.965 13.9293C180.021 13.9293 180.092 13.9293 180.177 13.9335C180.262 13.9377 180.327 13.9397 180.37 13.9439V14.7309C180.345 14.7247 180.285 14.7143 180.191 14.6997C180.098 14.6851 180 14.6789 179.898 14.6789C179.655 14.6789 179.436 14.7289 179.245 14.8309C179.054 14.9329 178.904 15.0724 178.794 15.2494C178.684 15.4264 178.63 15.6304 178.63 15.8574V19.043H177.858V19.0409Z" fill="white"/>
<path d="M181.68 13.1694C181.531 13.1694 181.402 13.1173 181.294 13.0153C181.185 12.9133 181.131 12.7883 181.131 12.6447C181.131 12.501 181.185 12.3761 181.294 12.2741C181.402 12.172 181.531 12.12 181.68 12.12C181.83 12.12 181.961 12.172 182.069 12.2741C182.178 12.3761 182.232 12.501 182.232 12.6447C182.232 12.7883 182.178 12.9133 182.069 13.0153C181.961 13.1173 181.832 13.1694 181.68 13.1694ZM181.287 19.0409V14.0085H182.059V19.0409H181.287Z" fill="white"/>
<path d="M187.034 15.1349L186.339 15.3306C186.295 15.214 186.231 15.1016 186.148 14.9912C186.065 14.8809 185.95 14.7893 185.807 14.7185C185.663 14.6456 185.478 14.6102 185.253 14.6102C184.946 14.6102 184.69 14.681 184.486 14.8226C184.282 14.9642 184.18 15.1411 184.18 15.3577C184.18 15.5492 184.251 15.7012 184.39 15.8137C184.53 15.9261 184.748 16.0177 185.045 16.0927L185.792 16.2759C186.241 16.3842 186.576 16.5507 186.797 16.7756C187.017 17.0005 187.127 17.2878 187.127 17.6397C187.127 17.927 187.044 18.1852 186.88 18.4121C186.716 18.6391 186.485 18.8181 186.191 18.9493C185.896 19.0805 185.555 19.145 185.164 19.145C184.65 19.145 184.226 19.0326 183.891 18.8098C183.556 18.587 183.342 18.2622 183.253 17.8333L183.987 17.6501C184.056 17.9208 184.189 18.1248 184.384 18.2601C184.58 18.3955 184.835 18.4642 185.152 18.4642C185.511 18.4642 185.798 18.3871 186.01 18.2331C186.223 18.079 186.329 17.8937 186.329 17.6771C186.329 17.5022 186.268 17.3565 186.146 17.2357C186.023 17.1171 185.836 17.0275 185.582 16.9692L184.744 16.7735C184.284 16.6652 183.945 16.4945 183.731 16.2634C183.517 16.0323 183.409 15.7449 183.409 15.3972C183.409 15.1141 183.49 14.8621 183.65 14.6435C183.81 14.4249 184.031 14.2542 184.307 14.1292C184.586 14.0043 184.902 13.9418 185.256 13.9418C185.753 13.9418 186.144 14.0501 186.429 14.2687C186.713 14.4873 186.915 14.7747 187.036 15.1328L187.034 15.1349Z" fill="white"/>
<path d="M188.29 19.0409V14.0085H189.037V14.7955H189.101C189.205 14.5269 189.376 14.3187 189.608 14.1688C189.841 14.0189 190.122 13.9439 190.449 13.9439C190.775 13.9439 191.056 14.0189 191.279 14.1688C191.501 14.3187 191.674 14.5269 191.796 14.7955H191.848C191.977 14.5352 192.171 14.3291 192.429 14.175C192.687 14.0209 192.994 13.9439 193.354 13.9439C193.803 13.9439 194.171 14.0834 194.456 14.3645C194.741 14.6456 194.885 15.0807 194.885 15.6741V19.043H194.113V15.6741C194.113 15.3035 194.011 15.037 193.81 14.8788C193.606 14.7185 193.369 14.6393 193.092 14.6393C192.738 14.6393 192.464 14.7455 192.271 14.96C192.077 15.1724 191.979 15.443 191.979 15.7678V19.0451H191.193V15.5992C191.193 15.3139 191.1 15.0828 190.915 14.9058C190.729 14.7309 190.49 14.6414 190.197 14.6414C189.997 14.6414 189.81 14.6956 189.636 14.8017C189.461 14.9079 189.321 15.0558 189.217 15.2452C189.111 15.4347 189.059 15.6512 189.059 15.899V19.0451H188.288L188.29 19.0409Z" fill="white"/>
<path d="M198.346 19.1471C197.892 19.1471 197.495 19.0388 197.152 18.8223C196.811 18.6058 196.544 18.3039 196.353 17.9145C196.162 17.5252 196.066 17.0712 196.066 16.5507C196.066 16.0302 196.162 15.568 196.353 15.1786C196.544 14.7893 196.811 14.4832 197.152 14.2666C197.493 14.0501 197.89 13.9418 198.346 13.9418C198.801 13.9418 199.196 14.0501 199.539 14.2666C199.88 14.4832 200.147 14.7872 200.338 15.1786C200.529 15.57 200.625 16.0281 200.625 16.5507C200.625 17.0733 200.529 17.5252 200.338 17.9145C200.147 18.3039 199.88 18.6058 199.539 18.8223C199.198 19.0388 198.801 19.1471 198.346 19.1471ZM198.346 18.4517C198.691 18.4517 198.974 18.3642 199.196 18.1873C199.419 18.0103 199.583 17.7771 199.691 17.4898C199.797 17.2024 199.851 16.8901 199.851 16.5528C199.851 16.2155 199.797 15.9032 199.691 15.6117C199.585 15.3223 199.419 15.087 199.196 14.9079C198.974 14.7289 198.691 14.6393 198.346 14.6393C198 14.6393 197.717 14.7289 197.495 14.9079C197.272 15.087 197.108 15.3223 197 15.6117C196.894 15.9032 196.84 16.2155 196.84 16.5528C196.84 16.8901 196.894 17.2024 197 17.4898C197.106 17.7771 197.272 18.0103 197.495 18.1873C197.717 18.3642 198 18.4517 198.346 18.4517Z" fill="white"/>
<path d="M155.484 30.2177C155.066 30.2177 154.696 30.1115 154.375 29.8991C154.055 29.6868 153.804 29.3849 153.623 28.9955C153.442 28.6062 153.35 28.1439 153.35 27.6109C153.35 27.0779 153.442 26.624 153.623 26.2346C153.804 25.8453 154.055 25.5454 154.378 25.3331C154.7 25.1207 155.074 25.0145 155.496 25.0145C155.823 25.0145 156.083 25.0686 156.274 25.1769C156.466 25.2852 156.611 25.408 156.713 25.5434C156.815 25.6808 156.894 25.7911 156.95 25.8786H157.015V23.4009H157.786V30.1115H157.04V29.3391H156.948C156.892 29.4307 156.811 29.5452 156.707 29.6847C156.603 29.8242 156.453 29.947 156.258 30.0553C156.062 30.1636 155.804 30.2177 155.482 30.2177H155.484ZM155.59 29.5244C155.9 29.5244 156.162 29.4432 156.376 29.2808C156.59 29.1184 156.753 28.8914 156.863 28.602C156.975 28.3126 157.029 27.9774 157.029 27.5984C157.029 27.2195 156.975 26.8926 156.865 26.6115C156.755 26.3304 156.595 26.1076 156.38 25.9494C156.166 25.7911 155.902 25.712 155.588 25.712C155.274 25.712 154.989 25.7953 154.771 25.9619C154.552 26.1284 154.39 26.3554 154.284 26.6406C154.178 26.9259 154.122 27.2445 154.122 27.5984C154.122 27.9524 154.178 28.2813 154.286 28.5728C154.396 28.8643 154.561 29.0955 154.777 29.2683C154.993 29.439 155.264 29.5264 155.588 29.5264L155.59 29.5244Z" fill="white"/>
<path d="M160.785 30.2323C160.467 30.2323 160.178 30.1719 159.918 30.0511C159.658 29.9304 159.452 29.7534 159.3 29.5244C159.148 29.2933 159.072 29.0143 159.072 28.6874C159.072 28.4 159.128 28.1647 159.242 27.9836C159.356 27.8025 159.508 27.663 159.698 27.5589C159.887 27.4568 160.097 27.3798 160.328 27.3277C160.559 27.2757 160.789 27.2361 161.022 27.2049C161.328 27.1653 161.576 27.1362 161.767 27.1154C161.958 27.0945 162.098 27.0591 162.185 27.0092C162.272 26.9592 162.318 26.8718 162.318 26.7468V26.7198C162.318 26.397 162.231 26.1451 162.054 25.966C161.879 25.787 161.613 25.6974 161.257 25.6974C160.902 25.6974 160.6 25.7786 160.39 25.939C160.18 26.1014 160.032 26.2742 159.949 26.4574L159.215 26.1951C159.346 25.889 159.521 25.6516 159.741 25.4788C159.96 25.3081 160.201 25.1873 160.461 25.1186C160.721 25.0499 160.979 25.0145 161.232 25.0145C161.395 25.0145 161.58 25.0332 161.79 25.0728C162 25.1103 162.204 25.1894 162.401 25.306C162.599 25.4247 162.763 25.6017 162.894 25.8411C163.025 26.0806 163.09 26.397 163.09 26.7968V30.1136H162.318V29.4328H162.279C162.227 29.5431 162.139 29.6597 162.016 29.7825C161.894 29.9075 161.732 30.0137 161.53 30.1011C161.326 30.1886 161.078 30.2323 160.787 30.2323H160.785ZM160.904 29.5369C161.21 29.5369 161.467 29.4765 161.677 29.3557C161.888 29.235 162.048 29.0809 162.156 28.8893C162.264 28.6999 162.318 28.5 162.318 28.2897V27.5818C162.285 27.6213 162.214 27.6567 162.104 27.6879C161.994 27.7192 161.867 27.7462 161.723 27.7691C161.58 27.792 161.442 27.8129 161.307 27.8274C161.172 27.8441 161.064 27.8566 160.981 27.8691C160.781 27.8962 160.594 27.9378 160.419 27.9961C160.247 28.0544 160.105 28.1398 160.001 28.2543C159.897 28.3688 159.843 28.525 159.843 28.7207C159.843 28.9893 159.943 29.1912 160.143 29.3286C160.342 29.4661 160.596 29.5327 160.904 29.5327V29.5369Z" fill="white"/>
<path d="M168.012 23.403V30.1136H167.201V23.403H168.012Z" fill="white"/>
<path d="M169.637 30.1136V23.403H170.408V25.8807H170.475C170.531 25.7932 170.61 25.6808 170.712 25.5454C170.814 25.408 170.959 25.2873 171.151 25.179C171.342 25.0707 171.6 25.0166 171.929 25.0166C172.353 25.0166 172.725 25.1228 173.047 25.3352C173.37 25.5475 173.621 25.8474 173.804 26.2367C173.985 26.6261 174.077 27.0841 174.077 27.613C174.077 28.1418 173.985 28.6082 173.804 28.9976C173.624 29.3869 173.372 29.6889 173.052 29.9012C172.731 30.1136 172.361 30.2198 171.943 30.2198C171.621 30.2198 171.361 30.1657 171.167 30.0574C170.974 29.9491 170.824 29.8263 170.718 29.6868C170.612 29.5473 170.533 29.4328 170.477 29.3411H170.385V30.1136H169.639H169.637ZM170.396 27.5963C170.396 27.9774 170.452 28.3105 170.562 28.5999C170.674 28.8893 170.837 29.1163 171.049 29.2787C171.263 29.4411 171.525 29.5223 171.835 29.5223C172.145 29.5223 172.428 29.4369 172.644 29.2641C172.86 29.0934 173.025 28.8602 173.135 28.5687C173.245 28.2772 173.299 27.9524 173.299 27.5942C173.299 27.2361 173.245 26.9217 173.137 26.6365C173.029 26.3512 172.867 26.1243 172.65 25.9577C172.434 25.7911 172.161 25.7079 171.833 25.7079C171.504 25.7079 171.255 25.787 171.04 25.9452C170.826 26.1035 170.666 26.3242 170.556 26.6073C170.446 26.8905 170.392 27.2195 170.392 27.5942L170.396 27.5963Z" fill="white"/>
<path d="M175.645 24.242C175.495 24.242 175.366 24.19 175.258 24.088C175.15 23.9859 175.096 23.861 175.096 23.7174C175.096 23.5737 175.15 23.4488 175.258 23.3467C175.366 23.2447 175.495 23.1927 175.645 23.1927C175.795 23.1927 175.926 23.2447 176.034 23.3467C176.142 23.4488 176.196 23.5737 176.196 23.7174C176.196 23.861 176.142 23.9859 176.034 24.088C175.926 24.19 175.797 24.242 175.645 24.242ZM175.252 30.1136V25.0811H176.024V30.1136H175.252Z" fill="white"/>
<path d="M178.916 30.2323C178.598 30.2323 178.309 30.1719 178.049 30.0511C177.789 29.9304 177.583 29.7534 177.432 29.5244C177.28 29.2933 177.203 29.0143 177.203 28.6874C177.203 28.4 177.259 28.1647 177.373 27.9836C177.488 27.8025 177.64 27.663 177.829 27.5589C178.018 27.4568 178.228 27.3798 178.459 27.3277C178.69 27.2757 178.921 27.2361 179.154 27.2049C179.459 27.1653 179.707 27.1362 179.898 27.1154C180.089 27.0945 180.229 27.0591 180.316 27.0092C180.403 26.9592 180.449 26.8718 180.449 26.7468V26.7198C180.449 26.397 180.362 26.1451 180.185 25.966C180.01 25.787 179.744 25.6974 179.389 25.6974C179.033 25.6974 178.731 25.7786 178.521 25.939C178.311 26.1014 178.164 26.2742 178.08 26.4574L177.346 26.1951C177.477 25.889 177.652 25.6516 177.872 25.4788C178.091 25.3081 178.332 25.1873 178.592 25.1186C178.852 25.0499 179.11 25.0145 179.364 25.0145C179.526 25.0145 179.711 25.0332 179.921 25.0728C180.131 25.1103 180.335 25.1894 180.532 25.306C180.73 25.4247 180.894 25.6017 181.025 25.8411C181.156 26.0806 181.221 26.397 181.221 26.7968V30.1136H180.449V29.4328H180.41C180.358 29.5431 180.27 29.6597 180.148 29.7825C180.025 29.9075 179.863 30.0137 179.661 30.1011C179.457 30.1886 179.21 30.2323 178.919 30.2323H178.916ZM179.035 29.5369C179.341 29.5369 179.599 29.4765 179.809 29.3557C180.019 29.235 180.179 29.0809 180.287 28.8893C180.395 28.6999 180.449 28.5 180.449 28.2897V27.5818C180.416 27.6213 180.345 27.6567 180.235 27.6879C180.125 27.7192 179.998 27.7462 179.854 27.7691C179.711 27.792 179.574 27.8129 179.438 27.8274C179.303 27.8441 179.195 27.8566 179.112 27.8691C178.912 27.8962 178.725 27.9378 178.55 27.9961C178.378 28.0544 178.236 28.1398 178.132 28.2543C178.028 28.3688 177.974 28.525 177.974 28.7207C177.974 28.9893 178.074 29.1912 178.274 29.3286C178.473 29.4661 178.727 29.5327 179.035 29.5327V29.5369Z" fill="white"/>
<path d="M182.635 32V25.0791H183.382V25.8786H183.473C183.529 25.7911 183.608 25.6787 183.71 25.5434C183.812 25.4059 183.958 25.2852 184.149 25.1769C184.34 25.0686 184.598 25.0145 184.927 25.0145C185.351 25.0145 185.723 25.1207 186.046 25.3331C186.368 25.5454 186.62 25.8453 186.801 26.2346C186.982 26.624 187.073 27.082 187.073 27.6109C187.073 28.1398 186.982 28.6062 186.801 28.9955C186.62 29.3849 186.368 29.6868 186.048 29.8992C185.728 30.1115 185.357 30.2177 184.939 30.2177C184.617 30.2177 184.357 30.1636 184.164 30.0553C183.97 29.947 183.821 29.8242 183.714 29.6847C183.61 29.5452 183.529 29.4307 183.473 29.3391H183.409V32H182.637H182.635ZM183.394 27.5963C183.394 27.9774 183.45 28.3105 183.561 28.5999C183.673 28.8893 183.835 29.1163 184.047 29.2787C184.259 29.4411 184.523 29.5223 184.833 29.5223C185.143 29.5223 185.426 29.4369 185.644 29.2641C185.861 29.0934 186.025 28.8602 186.135 28.5687C186.246 28.2772 186.3 27.9524 186.3 27.5942C186.3 27.2361 186.246 26.9217 186.137 26.6365C186.029 26.3512 185.867 26.1243 185.651 25.9577C185.434 25.7911 185.162 25.7079 184.833 25.7079C184.505 25.7079 184.255 25.787 184.041 25.9452C183.827 26.1035 183.667 26.3242 183.556 26.6073C183.446 26.8905 183.392 27.2195 183.392 27.5942L183.394 27.5963Z" fill="white"/>
<path d="M189.731 30.2323C189.413 30.2323 189.124 30.1719 188.864 30.0511C188.604 29.9304 188.398 29.7534 188.246 29.5244C188.094 29.2933 188.017 29.0143 188.017 28.6874C188.017 28.4 188.074 28.1647 188.188 27.9836C188.302 27.8025 188.454 27.663 188.643 27.5589C188.833 27.4568 189.043 27.3798 189.274 27.3277C189.504 27.2757 189.735 27.2361 189.968 27.2049C190.274 27.1653 190.521 27.1362 190.713 27.1154C190.904 27.0945 191.043 27.0591 191.131 27.0092C191.218 26.9592 191.264 26.8718 191.264 26.7468V26.7198C191.264 26.397 191.177 26.1451 191 25.966C190.825 25.787 190.559 25.6974 190.203 25.6974C189.848 25.6974 189.546 25.7786 189.336 25.939C189.126 26.1014 188.978 26.2742 188.895 26.4574L188.161 26.1951C188.292 25.889 188.467 25.6516 188.687 25.4788C188.906 25.3081 189.147 25.1873 189.407 25.1186C189.667 25.0499 189.925 25.0145 190.178 25.0145C190.341 25.0145 190.526 25.0332 190.736 25.0728C190.946 25.1103 191.15 25.1894 191.347 25.306C191.545 25.4247 191.709 25.6017 191.84 25.8411C191.971 26.0806 192.036 26.397 192.036 26.7968V30.1136H191.264V29.4328H191.224C191.172 29.5431 191.085 29.6597 190.962 29.7825C190.84 29.9075 190.677 30.0137 190.476 30.1011C190.272 30.1886 190.024 30.2323 189.733 30.2323H189.731ZM189.848 29.5369C190.153 29.5369 190.411 29.4765 190.621 29.3557C190.831 29.235 190.991 29.0809 191.1 28.8893C191.208 28.6999 191.262 28.5 191.262 28.2897V27.5818C191.229 27.6213 191.158 27.6567 191.048 27.6879C190.937 27.7192 190.811 27.7462 190.667 27.7691C190.524 27.792 190.386 27.8129 190.251 27.8274C190.116 27.8441 190.008 27.8566 189.925 27.8691C189.725 27.8962 189.538 27.9378 189.363 27.9961C189.19 28.0544 189.049 28.1398 188.945 28.2543C188.841 28.3688 188.787 28.525 188.787 28.7207C188.787 28.9893 188.887 29.1912 189.086 29.3286C189.286 29.4661 189.54 29.5327 189.848 29.5327V29.5369Z" fill="white"/>
<path d="M193.554 30.1136V23.403H194.325V25.8807H194.392C194.448 25.7932 194.527 25.6808 194.629 25.5454C194.731 25.408 194.876 25.2873 195.068 25.179C195.259 25.0707 195.517 25.0166 195.846 25.0166C196.27 25.0166 196.642 25.1228 196.965 25.3352C197.287 25.5475 197.539 25.8474 197.722 26.2367C197.902 26.6261 197.994 27.0841 197.994 27.613C197.994 28.1418 197.902 28.6082 197.722 28.9976C197.541 29.3869 197.289 29.6889 196.969 29.9012C196.648 30.1136 196.278 30.2198 195.86 30.2198C195.538 30.2198 195.278 30.1657 195.084 30.0574C194.891 29.9491 194.741 29.8263 194.635 29.6868C194.529 29.5473 194.45 29.4328 194.394 29.3411H194.302V30.1136H193.556H193.554ZM194.313 27.5963C194.313 27.9774 194.369 28.3105 194.479 28.5999C194.592 28.8893 194.754 29.1163 194.966 29.2787C195.18 29.4411 195.442 29.5223 195.752 29.5223C196.062 29.5223 196.345 29.4369 196.561 29.2641C196.777 29.0934 196.942 28.8602 197.052 28.5687C197.162 28.2772 197.216 27.9524 197.216 27.5942C197.216 27.2361 197.162 26.9217 197.054 26.6365C196.946 26.3512 196.784 26.1243 196.567 25.9577C196.351 25.7911 196.079 25.7079 195.75 25.7079C195.421 25.7079 195.172 25.787 194.958 25.9452C194.743 26.1035 194.583 26.3242 194.473 26.6073C194.363 26.8905 194.309 27.2195 194.309 27.5942L194.313 27.5963Z" fill="white"/>
<path d="M200.648 30.2323C200.33 30.2323 200.04 30.1719 199.781 30.0511C199.521 29.9304 199.315 29.7534 199.163 29.5244C199.011 29.2933 198.934 29.0143 198.934 28.6874C198.934 28.4 198.99 28.1647 199.105 27.9836C199.219 27.8025 199.371 27.663 199.56 27.5589C199.749 27.4568 199.959 27.3798 200.19 27.3277C200.421 27.2757 200.652 27.2361 200.885 27.2049C201.191 27.1653 201.438 27.1362 201.629 27.1154C201.821 27.0945 201.96 27.0591 202.047 27.0092C202.135 26.9592 202.181 26.8718 202.181 26.7468V26.7198C202.181 26.397 202.093 26.1451 201.916 25.966C201.742 25.787 201.476 25.6974 201.12 25.6974C200.764 25.6974 200.463 25.7786 200.253 25.939C200.043 26.1014 199.895 26.2742 199.812 26.4574L199.078 26.1951C199.209 25.889 199.383 25.6516 199.604 25.4788C199.822 25.3081 200.063 25.1873 200.323 25.1186C200.583 25.0499 200.841 25.0145 201.095 25.0145C201.257 25.0145 201.442 25.0332 201.652 25.0728C201.862 25.1103 202.066 25.1894 202.264 25.306C202.461 25.4247 202.626 25.6017 202.757 25.8411C202.888 26.0806 202.952 26.397 202.952 26.7968V30.1136H202.181V29.4328H202.141C202.089 29.5431 202.002 29.6597 201.879 29.7825C201.756 29.9075 201.594 30.0137 201.392 30.1011C201.189 30.1886 200.941 30.2323 200.65 30.2323H200.648ZM200.766 29.5369C201.072 29.5369 201.33 29.4765 201.54 29.3557C201.75 29.235 201.91 29.0809 202.018 28.8893C202.126 28.6999 202.181 28.5 202.181 28.2897V27.5818C202.147 27.6213 202.077 27.6567 201.966 27.6879C201.856 27.7192 201.729 27.7462 201.586 27.7691C201.442 27.792 201.305 27.8129 201.17 27.8274C201.035 27.8441 200.926 27.8566 200.843 27.8691C200.644 27.8962 200.456 27.9378 200.282 27.9961C200.109 28.0544 199.968 28.1398 199.864 28.2543C199.76 28.3688 199.706 28.525 199.706 28.7207C199.706 28.9893 199.805 29.1912 200.005 29.3286C200.205 29.4661 200.459 29.5327 200.766 29.5327V29.5369Z" fill="white"/>
<g clip-path="url(#clip1_6_3)">
<path d="M24.6991 24.0992C24.6078 24.2 24.2769 24.2609 24.0769 24.5917C23.8753 24.9226 23.514 25.185 23.4836 25.3148C23.4531 25.446 23.506 25.7384 23.4581 25.7913C23.3239 25.9385 22.8808 25.8472 22.8409 25.9879C22.801 26.1286 22.8618 26.5203 22.7111 26.5906C22.5609 26.661 21.9981 26.9918 21.9068 27.4943C21.8175 27.9963 21.8778 28.4284 21.8175 28.5786C21.7566 28.7288 21.2851 29.3415 21.2352 29.4613C21.1314 29.7078 21.2846 30.1344 21.2047 30.2447C21.1249 30.355 20.8929 30.6973 20.8834 31.0281C20.8739 31.3589 21.1888 31.7895 21.0211 31.799C20.8484 31.81 20.7222 31.54 20.3016 30.9882C19.8794 30.4363 19.4269 29.592 19.347 29.3221C19.2672 29.0501 18.9728 28.3835 18.6944 28.377C18.5726 28.3755 18.1764 29.834 17.9204 29.824C17.4743 29.8066 17.3865 28.5302 15.9021 28.3466C15.5408 28.3031 14.0184 29.4134 13.3722 29.4418C11.9731 29.5042 10.5081 29.1779 9.91779 29.1409C9.38388 29.1055 8.9837 29.6224 8.81255 29.6224C8.65088 29.6224 7.72827 29.7392 6.18841 29.3281C6.05868 29.2946 6.03323 29.122 6.147 29.0531C6.29719 28.9638 6.5387 28.85 6.92591 28.7283C7.11602 28.6674 7.18637 28.0856 7.18637 27.4634C7.18637 26.8411 7.05514 24.5608 7.15594 24.1901C7.25673 23.8188 7.30164 23.5554 7.43736 23.3263C7.50123 23.2175 7.98923 22.8433 7.8595 22.2116C7.72827 21.5784 6.58361 19.058 6.21237 18.6968C5.83963 18.3355 5.18746 17.7437 5.15702 17.5421C5.12808 17.3406 5.14754 16.618 5.05773 16.0966C4.96641 15.5737 4.50436 13.3956 4.29329 12.9221C4.08372 12.4506 3.77185 11.7884 3.00891 11.1856C2.24448 10.5829 1.22107 8.95619 1.07087 7.51065C0.978064 6.62646 0.9606 6.76717 1.11079 6.62646C1.26099 6.48574 2.86521 5.05616 3.64062 4.50779C4.31574 4.03276 4.73588 4.13654 5.10712 3.11314C5.47886 2.08873 6.06866 0 6.32314 0C6.50377 0 6.51325 0.673124 6.80465 1.09376C7.09556 1.5159 7.22679 1.5673 7.69883 1.67757C8.17036 1.78785 7.9099 1.97846 8.39141 2.13813C8.87442 2.2998 9.09497 2.33024 9.16533 2.3492C9.23569 2.37016 9.29506 2.41007 9.46123 2.53133C9.58747 2.62563 9.57649 2.71046 9.84843 2.85117C10.1189 2.99188 10.6318 3.16303 10.8833 3.34367C11.1343 3.5243 12.6203 4.85009 12.9207 5.12053C13.223 5.39248 13.4037 5.62251 13.6337 5.47231C13.8657 5.32212 13.7554 4.86007 13.8353 4.46787C13.9151 4.07617 14.227 3.25235 14.8283 3.25235C15.4295 3.25235 15.4709 3.93496 15.1706 4.82913C14.8702 5.7233 14.5483 5.73278 14.3677 5.99475C14.1871 6.25521 13.8353 6.86796 13.7345 6.90788C13.6337 6.9478 13.3523 6.99919 13.2819 7.43081C13.2116 7.86243 13.4531 8.10244 13.4835 8.3649C13.5139 8.62537 13.4625 9.0974 13.5539 9.0974C13.6452 9.0974 13.9056 8.66579 14.0159 8.66579C14.1262 8.66579 14.216 8.83694 14.3163 8.83694C14.3577 8.83694 14.4381 8.78754 14.5354 8.72966C14.6711 8.64633 14.8392 8.54553 14.969 8.54553C15.0987 8.54553 15.683 9.14481 16.1386 9.64778C16.2149 9.73211 16.2558 9.84188 16.2558 9.95565C16.2558 9.95615 16.2558 9.95665 16.2558 9.95765C16.2558 10.5839 16.3422 11.1901 16.5033 11.765C16.5118 11.7954 16.5173 11.8273 16.5188 11.8593C16.5353 12.1931 16.5482 12.5024 16.5452 12.6427C16.5393 12.8772 16.4185 13.1621 16.3222 13.3527C16.2489 13.4974 16.2608 13.6706 16.3511 13.8048C16.441 13.9385 16.5527 14.0787 16.6251 14.0787C16.6775 14.0787 16.7653 13.9999 16.8606 13.8896C17.0477 13.6726 17.3895 13.689 17.5602 13.9195C17.6854 14.0882 17.8181 14.2509 17.9584 14.4071C18.0636 14.5243 18.0881 14.687 18.0497 14.8397C18.0342 14.9 18.0302 14.9639 18.0377 15.0273C18.0601 15.2274 18.1031 15.4814 18.1719 15.5742C18.2937 15.7358 18.8261 15.7663 18.9763 15.8765C19.1265 15.9868 19.2672 16.0462 19.3475 16.0462C19.4279 16.0462 19.5092 16.1869 19.5092 16.2877C19.5092 16.3885 19.5202 16.4748 19.4997 16.5262C19.4807 16.5756 19.4483 16.6095 19.4483 16.7403C19.4483 16.862 19.618 17.3545 19.5281 17.7268C19.5232 17.7492 19.5172 17.7717 19.5092 17.7941C19.3056 18.3784 18.3326 20.325 17.9908 21.0036C17.9239 21.1358 17.9294 21.291 17.9978 21.4222C18.0407 21.5045 18.0751 21.6043 18.0621 21.7011C18.0332 21.9217 17.7712 22.6048 18.0831 22.7151C18.395 22.8253 21.4462 22.7151 21.4462 22.7151C21.4462 22.7151 22.1403 22.7246 22.5624 23.5384C22.9831 24.3507 23.6657 23.6791 23.6657 23.6791C23.6657 23.6791 24.5055 22.9197 24.9017 22.8957C25.0613 22.8862 24.7914 24.0009 24.7001 24.0997L24.6991 24.0992Z" fill="url(#paint0_linear_6_3)"/>
<path d="M29.4199 15.4015C30.6544 13.9285 31.3998 12.0304 31.3998 9.95815C31.3998 5.27572 27.6036 1.48097 22.9227 1.48097C18.6579 1.48097 15.1281 4.62954 14.5348 8.73015C14.4754 9.12984 14.4455 9.541 14.4455 9.95815C14.4455 13.4315 16.5357 16.4189 19.5276 17.7268C20.567 18.1823 21.7151 18.4353 22.9227 18.4353C24.6511 18.4353 26.2584 17.9174 27.6001 17.0297L33.7505 23.1801L35.4745 21.4561L29.4199 15.4015ZM22.9222 16.625C21.0575 16.625 19.3719 15.8591 18.1629 14.6261C17.7981 14.2549 17.4783 13.8427 17.2083 13.3961C16.9125 12.9051 16.6789 12.3742 16.5158 11.8114C16.3461 11.2231 16.2553 10.6008 16.2553 9.95815C16.2553 9.89877 16.2553 9.83989 16.2568 9.78051C16.3511 6.18086 19.2986 3.29127 22.9222 3.29127C26.5458 3.29127 29.589 6.27517 29.589 9.95815C29.589 13.6411 26.6031 16.625 22.9222 16.625Z" fill="white"/>
<path d="M20.3899 9.85885H18.4134C18.2715 9.85885 18.1564 9.9739 18.1564 10.1158V12.2629C18.1564 12.4049 18.2715 12.5199 18.4134 12.5199H20.3899C20.5318 12.5199 20.6468 12.4049 20.6468 12.2629V10.1158C20.6468 9.9739 20.5318 9.85885 20.3899 9.85885Z" fill="#A997FF"/>
<path d="M23.7585 8.57247H21.782C21.6401 8.57247 21.525 8.68752 21.525 8.82945V12.2629C21.525 12.4049 21.6401 12.5199 21.782 12.5199H23.7585C23.9004 12.5199 24.0154 12.4049 24.0154 12.2629V8.82945C24.0154 8.68752 23.9004 8.57247 23.7585 8.57247Z" fill="#A997FF"/>
<path d="M27.1271 6.55161H25.1507C25.0087 6.55161 24.8937 6.66666 24.8937 6.80858V12.2629C24.8937 12.4049 25.0087 12.5199 25.1507 12.5199H27.1271C27.269 12.5199 27.3841 12.4049 27.3841 12.2629V6.80858C27.3841 6.66666 27.269 6.55161 27.1271 6.55161Z" fill="#A997FF"/>
</g>
</g>
<defs>
<linearGradient id="paint0_linear_6_3" x1="25.209" y1="8.33696" x2="6.26426" y2="20.7551" gradientUnits="userSpaceOnUse">
<stop offset="0.04" stop-color="#7968DD"/>
<stop offset="0.19" stop-color="#6679D3"/>
<stop offset="0.49" stop-color="#35A8B9"/>
<stop offset="0.75" stop-color="#06D6A0"/>
</linearGradient>
<clipPath id="clip0_6_3">
<rect width="209" height="32" fill="white"/>
</clipPath>
<clipPath id="clip1_6_3">
<rect width="34.474" height="31.8" fill="white" transform="translate(1)"/>
</clipPath>
</defs>
</svg>
