<svg width="48" height="44" viewBox="0 0 48 44" fill="none" xmlns="http://www.w3.org/2000/svg">
<g clip-path="url(#clip0_3_71)">
<path d="M32.9977 33.3449C32.8705 33.4843 32.4099 33.5686 32.1313 34.0263C31.8506 34.484 31.3476 34.8472 31.3052 35.0267C31.2628 35.2083 31.3365 35.6129 31.2698 35.6861C31.0829 35.8897 30.466 35.7634 30.4104 35.9581C30.3548 36.1528 30.4396 36.6947 30.2297 36.7921C30.0206 36.8894 29.2369 37.3472 29.1098 38.0424C28.9854 38.737 29.0695 39.3349 28.9854 39.5427C28.9007 39.7505 28.2441 40.5983 28.1747 40.764C28.0301 41.1051 28.2434 41.6954 28.1323 41.848C28.0211 42.0006 27.6981 42.4742 27.6849 42.9319C27.6717 43.3897 28.11 43.9855 27.8766 43.9986C27.6362 44.0138 27.4604 43.6403 26.8748 42.8767C26.287 42.1131 25.6569 40.9449 25.5457 40.5714C25.4345 40.1951 25.0246 39.2727 24.637 39.2638C24.4674 39.2617 23.9158 41.2798 23.5594 41.266C22.9383 41.2418 22.816 39.4757 20.7491 39.2217C20.2461 39.1616 18.1264 40.6978 17.2267 40.7371C15.2786 40.8234 13.2388 40.3719 12.4169 40.3208C11.6735 40.2718 11.1163 40.987 10.878 40.987C10.6529 40.987 9.36831 41.1486 7.22429 40.5797C7.04365 40.5334 7.00822 40.2946 7.16663 40.1993C7.37575 40.0757 7.71201 39.9183 8.25114 39.7498C8.51584 39.6656 8.6138 38.8606 8.6138 37.9996C8.6138 37.1387 8.43108 33.9835 8.57142 33.4705C8.71176 32.9568 8.77429 32.5923 8.96327 32.2754C9.05219 32.1249 9.73167 31.6071 9.55103 30.733C9.36831 29.8569 7.77454 26.3696 7.25764 25.8698C6.73866 25.3699 5.83061 24.5511 5.78823 24.2721C5.74793 23.9932 5.77503 22.9935 5.64997 22.272C5.52283 21.5485 4.87949 18.5348 4.58561 17.8796C4.29381 17.2272 3.85959 16.311 2.79731 15.477C1.73294 14.643 0.307995 12.3922 0.0988737 10.3921C-0.0303509 9.16868 -0.0546673 9.36338 0.154454 9.16868C0.363576 8.97398 2.59722 6.99595 3.67687 6.23719C4.61687 5.57992 5.20186 5.72352 5.71875 4.30748C6.23635 2.89007 7.05755 0 7.41188 0C7.66338 0 7.67658 0.931367 8.08231 1.51338C8.48736 2.09747 8.67008 2.16859 9.32732 2.32117C9.98386 2.47375 9.6212 2.73749 10.2916 2.95842C10.9642 3.18211 11.2712 3.22423 11.3692 3.25046C11.4672 3.27946 11.5498 3.33469 11.7812 3.50246C11.957 3.63295 11.9417 3.75032 12.3203 3.94502C12.6969 4.13971 13.4111 4.37653 13.7613 4.62646C14.1107 4.87638 16.1797 6.71081 16.5979 7.08501C17.019 7.46129 17.2705 7.77957 17.5907 7.57176C17.9138 7.36394 17.7603 6.72462 17.8714 6.18196C17.9826 5.63998 18.4168 4.50011 19.254 4.50011C20.0912 4.50011 20.1488 5.44459 19.7306 6.68181C19.3123 7.91903 18.8642 7.93215 18.6127 8.29462C18.3612 8.65501 17.8714 9.50284 17.7311 9.55807C17.5907 9.61331 17.1989 9.68442 17.1009 10.2816C17.003 10.8788 17.3392 11.2109 17.3816 11.5741C17.424 11.9345 17.3524 12.5876 17.4796 12.5876C17.6067 12.5876 17.9694 11.9904 18.1229 11.9904C18.2765 11.9904 18.4015 12.2272 18.5412 12.2272C18.5988 12.2272 18.7107 12.1589 18.8462 12.0788C19.0351 11.9635 19.2693 11.824 19.4499 11.824C19.6305 11.824 20.4441 12.6532 21.0784 13.3491C21.1847 13.4658 21.2417 13.6177 21.2417 13.7751C21.2417 13.7758 21.2417 13.7765 21.2417 13.7779C21.2417 14.6443 21.3619 15.4832 21.5863 16.2785C21.5981 16.3207 21.6057 16.3649 21.6078 16.409C21.6308 16.8709 21.6488 17.299 21.6446 17.493C21.6363 17.8175 21.4682 18.2117 21.3341 18.4754C21.232 18.6757 21.2486 18.9152 21.3744 19.101C21.4994 19.286 21.6551 19.48 21.7558 19.48C21.8288 19.48 21.951 19.3709 22.0837 19.2183C22.3443 18.918 22.8202 18.9408 23.0578 19.2598C23.2322 19.4931 23.417 19.7182 23.6122 19.9343C23.7588 20.0965 23.7928 20.3216 23.7393 20.5329C23.7178 20.6164 23.7122 20.7048 23.7227 20.7925C23.7539 21.0693 23.8137 21.4207 23.9096 21.5492C24.0791 21.7729 24.8204 21.815 25.0295 21.9676C25.2386 22.1201 25.4345 22.2023 25.5464 22.2023C25.6583 22.2023 25.7715 22.397 25.7715 22.5365C25.7715 22.6759 25.7868 22.7954 25.7583 22.8665C25.7319 22.9348 25.6867 22.9818 25.6867 23.1627C25.6867 23.3311 25.923 24.0126 25.7979 24.5276C25.791 24.5587 25.7826 24.5897 25.7715 24.6208C25.488 25.4293 24.1333 28.1226 23.6574 29.0615C23.5643 29.2445 23.5719 29.4592 23.6671 29.6408C23.7268 29.7547 23.7748 29.8928 23.7567 30.0267C23.7164 30.3319 23.3517 31.2771 23.7859 31.4297C24.2201 31.5822 28.4685 31.4297 28.4685 31.4297C28.4685 31.4297 29.4349 31.4428 30.0227 32.5688C30.6084 33.6928 31.5588 32.7635 31.5588 32.7635C31.5588 32.7635 32.7281 31.7127 33.2797 31.6796C33.502 31.6665 33.1262 33.2089 32.999 33.3456L32.9977 33.3449Z" fill="url(#paint0_linear_3_71)"/>
<path d="M39.5705 21.3103C41.2893 19.2722 42.3273 16.6459 42.3273 13.7786C42.3273 7.29974 37.0416 2.04915 30.5241 2.04915C24.586 2.04915 19.6713 6.40565 18.8452 12.0795C18.7626 12.6325 18.7209 13.2014 18.7209 13.7786C18.7209 18.5845 21.6312 22.718 25.797 24.5276C27.2442 25.158 28.8428 25.508 30.5241 25.508C32.9307 25.508 35.1685 24.7913 37.0367 23.5631L45.6003 32.0731L48.0007 29.6877L39.5705 21.3103ZM30.5234 23.0032C27.9271 23.0032 25.5802 21.9434 23.8968 20.2374C23.389 19.7237 22.9436 19.1534 22.5677 18.5355C22.1558 17.8561 21.8306 17.1215 21.6034 16.3428C21.3672 15.5288 21.2408 14.6678 21.2408 13.7786C21.2408 13.6964 21.2408 13.6149 21.2429 13.5328C21.3742 8.55214 25.4781 4.55397 30.5234 4.55397C35.5687 4.55397 39.806 8.68263 39.806 13.7786C39.806 18.8745 35.6486 23.0032 30.5234 23.0032Z" fill="black"/>
<path d="M26.9975 13.6412H24.2456C24.048 13.6412 23.8878 13.8004 23.8878 13.9967V16.9676C23.8878 17.164 24.048 17.3231 24.2456 17.3231H26.9975C27.1951 17.3231 27.3553 17.164 27.3553 16.9676V13.9967C27.3553 13.8004 27.1951 13.6412 26.9975 13.6412Z" fill="#8B5CF6"/>
<path d="M31.6878 11.8613H28.9359C28.7383 11.8613 28.5781 12.0205 28.5781 12.2169V16.9676C28.5781 17.164 28.7383 17.3232 28.9359 17.3232H31.6878C31.8854 17.3232 32.0456 17.164 32.0456 16.9676V12.2169C32.0456 12.0205 31.8854 11.8613 31.6878 11.8613Z" fill="#8B5CF6"/>
<path d="M36.3781 9.06512H33.6262C33.4286 9.06512 33.2684 9.22431 33.2684 9.42069V16.9676C33.2684 17.164 33.4286 17.3232 33.6262 17.3232H36.3781C36.5757 17.3232 36.7359 17.164 36.7359 16.9676V9.42069C36.7359 9.22431 36.5757 9.06512 36.3781 9.06512Z" fill="#8B5CF6"/>
</g>
<defs>
<linearGradient id="paint0_linear_3_71" x1="33.7077" y1="11.5354" x2="7.42957" y2="28.8688" gradientUnits="userSpaceOnUse">
<stop offset="0.04" stop-color="#7968DD"/>
<stop offset="0.19" stop-color="#6679D3"/>
<stop offset="0.49" stop-color="#35A8B9"/>
<stop offset="0.75" stop-color="#06D6A0"/>
</linearGradient>
<clipPath id="clip0_3_71">
<rect width="48" height="44" fill="white"/>
</clipPath>
</defs>
</svg>
