<svg width="48" height="44" viewBox="0 0 48 44" fill="none" xmlns="http://www.w3.org/2000/svg">
<g clip-path="url(#clip0_3_63)">
<path d="M32.9973 33.3449C32.8701 33.4843 32.4095 33.5686 32.1309 34.0263C31.8502 34.484 31.3472 34.8472 31.3049 35.0267C31.2625 35.2083 31.3361 35.6129 31.2694 35.686C31.0825 35.8897 30.4656 35.7634 30.41 35.9581C30.3544 36.1528 30.4392 36.6947 30.2294 36.7921C30.0203 36.8894 29.2366 37.3472 29.1094 38.0424C28.9851 38.737 29.0691 39.3349 28.9851 39.5427C28.9003 39.7505 28.2438 40.5983 28.1743 40.764C28.0298 41.1051 28.2431 41.6954 28.1319 41.848C28.0208 42.0006 27.6977 42.4742 27.6845 42.9319C27.6713 43.3897 28.1097 43.9855 27.8762 43.9986C27.6359 44.0138 27.4601 43.6403 26.8744 42.8767C26.2866 42.1131 25.6565 40.9449 25.5453 40.5714C25.4342 40.1951 25.0243 39.2727 24.6366 39.2638C24.4671 39.2617 23.9154 41.2798 23.559 41.266C22.9379 41.2418 22.8156 39.4757 20.7487 39.2216C20.2457 39.1616 18.126 40.6978 17.2263 40.7371C15.2782 40.8234 13.2384 40.3719 12.4165 40.3208C11.6731 40.2718 11.1159 40.987 10.8776 40.987C10.6525 40.987 9.36794 41.1486 7.22393 40.5797C7.04329 40.5334 7.00786 40.2946 7.16626 40.1993C7.37538 40.0757 7.71164 39.9183 8.25077 39.7498C8.51548 39.6656 8.61344 38.8606 8.61344 37.9996C8.61344 37.1387 8.43072 33.9835 8.57106 33.4705C8.7114 32.9568 8.77393 32.5923 8.9629 32.2754C9.05183 32.1249 9.7313 31.6071 9.55066 30.733C9.36794 29.8569 7.77417 26.3696 7.25727 25.8698C6.73829 25.3699 5.83024 24.5511 5.78786 24.2721C5.74757 23.9932 5.77466 22.9935 5.64961 22.272C5.52247 21.5485 4.87912 18.5348 4.58524 17.8796C4.29344 17.2272 3.85922 16.311 2.79694 15.477C1.73257 14.643 0.307629 12.3922 0.0985075 10.3921C-0.0307171 9.16868 -0.0550335 9.36338 0.154088 9.16868C0.36321 8.97398 2.59685 6.99595 3.6765 6.23719C4.61651 5.57991 5.20149 5.72352 5.71839 4.30748C6.23598 2.89007 7.05718 0 7.41151 0C7.66301 0 7.67621 0.931367 8.08195 1.51338C8.48699 2.09747 8.66971 2.16859 9.32695 2.32117C9.9835 2.47375 9.62083 2.73749 10.2913 2.95842C10.9638 3.18211 11.2709 3.22423 11.3688 3.25046C11.4668 3.27946 11.5495 3.33469 11.7808 3.50246C11.9566 3.63295 11.9413 3.75032 12.32 3.94502C12.6965 4.13971 13.4107 4.37653 13.7609 4.62645C14.1103 4.87638 16.1793 6.71081 16.5976 7.08501C17.0186 7.46129 17.2701 7.77957 17.5904 7.57175C17.9134 7.36394 17.7599 6.72462 17.8711 6.18195C17.9822 5.63998 18.4164 4.50011 19.2536 4.50011C20.0908 4.50011 20.1485 5.44459 19.7302 6.68181C19.312 7.91903 18.8639 7.93215 18.6124 8.29462C18.3609 8.65501 17.8711 9.50284 17.7307 9.55807C17.5904 9.61331 17.1985 9.68442 17.1006 10.2816C17.0026 10.8788 17.3389 11.2109 17.3813 11.5741C17.4236 11.9345 17.3521 12.5876 17.4792 12.5876C17.6064 12.5876 17.969 11.9904 18.1226 11.9904C18.2761 11.9904 18.4012 12.2272 18.5408 12.2272C18.5985 12.2272 18.7103 12.1589 18.8458 12.0788C19.0348 11.9635 19.2689 11.824 19.4495 11.824C19.6302 11.824 20.4437 12.6532 21.0781 13.3491C21.1844 13.4658 21.2413 13.6177 21.2413 13.7751C21.2413 13.7758 21.2413 13.7765 21.2413 13.7779C21.2413 14.6443 21.3615 15.4832 21.5859 16.2785C21.5977 16.3207 21.6054 16.3648 21.6075 16.409C21.6304 16.8709 21.6484 17.299 21.6443 17.493C21.6359 17.8175 21.4678 18.2117 21.3337 18.4754C21.2316 18.6757 21.2483 18.9152 21.374 19.101C21.4991 19.286 21.6547 19.48 21.7554 19.48C21.8284 19.48 21.9507 19.3709 22.0834 19.2183C22.3439 18.918 22.8198 18.9408 23.0574 19.2597C23.2318 19.4931 23.4166 19.7182 23.6118 19.9343C23.7584 20.0965 23.7925 20.3216 23.739 20.5329C23.7174 20.6164 23.7119 20.7048 23.7223 20.7925C23.7536 21.0693 23.8133 21.4207 23.9092 21.5492C24.0787 21.7729 24.82 21.815 25.0291 21.9675C25.2383 22.1201 25.4342 22.2023 25.546 22.2023C25.6579 22.2023 25.7711 22.397 25.7711 22.5364C25.7711 22.6759 25.7864 22.7954 25.7579 22.8665C25.7315 22.9348 25.6864 22.9818 25.6864 23.1627C25.6864 23.3311 25.9226 24.0126 25.7975 24.5276C25.7906 24.5587 25.7822 24.5897 25.7711 24.6208C25.4877 25.4293 24.1329 28.1226 23.657 29.0615C23.5639 29.2445 23.5715 29.4592 23.6667 29.6408C23.7265 29.7547 23.7744 29.8928 23.7563 30.0267C23.716 30.3319 23.3513 31.2771 23.7855 31.4297C24.2197 31.5822 28.4682 31.4297 28.4682 31.4297C28.4682 31.4297 29.4346 31.4428 30.0223 32.5688C30.608 33.6928 31.5584 32.7635 31.5584 32.7635C31.5584 32.7635 32.7277 31.7127 33.2794 31.6796C33.5017 31.6665 33.1258 33.2088 32.9987 33.3455L32.9973 33.3449Z" fill="url(#paint0_linear_3_63)"/>
<path d="M39.5705 21.3103C41.2893 19.2722 42.3273 16.6459 42.3273 13.7786C42.3273 7.29974 37.0416 2.04915 30.5241 2.04915C24.586 2.04915 19.6713 6.40565 18.8452 12.0795C18.7626 12.6325 18.7209 13.2014 18.7209 13.7786C18.7209 18.5845 21.6312 22.718 25.797 24.5276C27.2442 25.158 28.8428 25.508 30.5241 25.508C32.9307 25.508 35.1685 24.7913 37.0367 23.5631L45.6003 32.0731L48.0007 29.6878L39.5705 21.3103ZM30.5234 23.0032C27.9271 23.0032 25.5802 21.9434 23.8968 20.2374C23.389 19.7237 22.9436 19.1534 22.5678 18.5355C22.1558 17.8561 21.8306 17.1215 21.6034 16.3428C21.3672 15.5288 21.2408 14.6678 21.2408 13.7786C21.2408 13.6964 21.2408 13.6149 21.2429 13.5328C21.3742 8.55215 25.4781 4.55397 30.5234 4.55397C35.5687 4.55397 39.806 8.68264 39.806 13.7786C39.806 18.8745 35.6486 23.0032 30.5234 23.0032Z" fill="white"/>
<path d="M26.9975 13.6412H24.2456C24.048 13.6412 23.8878 13.8004 23.8878 13.9967V16.9676C23.8878 17.164 24.048 17.3231 24.2456 17.3231H26.9975C27.1952 17.3231 27.3553 17.164 27.3553 16.9676V13.9967C27.3553 13.8004 27.1952 13.6412 26.9975 13.6412Z" fill="#A997FF"/>
<path d="M31.6879 11.8613H28.9359C28.7383 11.8613 28.5781 12.0205 28.5781 12.2169V16.9676C28.5781 17.164 28.7383 17.3232 28.9359 17.3232H31.6879C31.8855 17.3232 32.0457 17.164 32.0457 16.9676V12.2169C32.0457 12.0205 31.8855 11.8613 31.6879 11.8613Z" fill="#A997FF"/>
<path d="M36.3782 9.06512H33.6262C33.4286 9.06512 33.2684 9.22431 33.2684 9.42069V16.9676C33.2684 17.164 33.4286 17.3231 33.6262 17.3231H36.3782C36.5758 17.3231 36.736 17.164 36.736 16.9676V9.42069C36.736 9.22431 36.5758 9.06512 36.3782 9.06512Z" fill="#A997FF"/>
</g>
<defs>
<linearGradient id="paint0_linear_3_63" x1="33.7073" y1="11.5354" x2="7.42921" y2="28.8688" gradientUnits="userSpaceOnUse">
<stop offset="0.04" stop-color="#7968DD"/>
<stop offset="0.19" stop-color="#6679D3"/>
<stop offset="0.49" stop-color="#35A8B9"/>
<stop offset="0.75" stop-color="#06D6A0"/>
</linearGradient>
<clipPath id="clip0_3_63">
<rect width="48" height="44" fill="white"/>
</clipPath>
</defs>
</svg>
